<?xml version="1.0" encoding="utf-8"?>
<!-- Generator: Adobe Illustrator 27.0.0, SVG Export Plug-In . SVG Version: 6.00 Build 0)  -->
<svg version="1.1" id="Layer_2_00000125583170592872115110000010542526345183276684_"
	 xmlns="http://www.w3.org/2000/svg" xmlns:xlink="http://www.w3.org/1999/xlink" x="0px" y="0px" viewBox="0 0 739.7 163.3"
	 style="enable-background:new 0 0 739.7 163.3;" xml:space="preserve">
<style type="text/css">
	.st0{fill:url(#SVGID_1_);}
	.st1{fill:url(#SVGID_00000139983836492635625210000001048356844575666049_);}
	.st2{fill:url(#SVGID_00000029018275110220420790000002131290284664837263_);}
	.st3{fill:#001D77;}
	.st4{fill:#FFFFFF;}
	.st5{font-family:'Arial-BoldMT';}
	.st6{font-size:22.3878px;}
	.st7{fill:url(#SVGID_00000071528281699237999980000000064099424051721150_);}
	.st8{fill:url(#SVGID_00000023276911397281121670000004581543632590853507_);}
	.st9{fill:url(#SVGID_00000058580136325844248880000004353265082898544529_);}
</style>
<g id="Layer_1-2">
	<g>
		<g>
			<g>
				<linearGradient id="SVGID_1_" gradientUnits="userSpaceOnUse" x1="470.6353" y1="138.7711" x2="73.6353" y2="41.7711">
					<stop  offset="0" style="stop-color:#6921A3"/>
					<stop  offset="1" style="stop-color:#00CFC9"/>
				</linearGradient>
				<path class="st0" d="M170.2,45V14.2h100.1V45h-32.9v104h-34.1V45H170.2L170.2,45z M221.4,136.1c0-35.6-0.2-70.3-0.4-105.7h36.2
					v-1.7h-74.1v1.7h36.4v105.7H221.4z"/>
				
					<linearGradient id="SVGID_00000043431255964176830800000006169341656129622148_" gradientUnits="userSpaceOnUse" x1="475.9122" y1="117.1739" x2="78.9122" y2="20.1739">
					<stop  offset="0" style="stop-color:#6921A3"/>
					<stop  offset="1" style="stop-color:#00CFC9"/>
				</linearGradient>
				<path style="fill:url(#SVGID_00000043431255964176830800000006169341656129622148_);" d="M372.6,45h-49.9v19.1h45.8v30.6h-45.8
					v23.7h51.6v30.6h-85.9V14.2h84.2L372.6,45L372.6,45L372.6,45z M304.6,134.8h56.6v-1.9h-54.5V80.3h48.9v-1.9h-48.9v-48h52.8v-1.9
					h-54.9V134.8z"/>
				
					<linearGradient id="SVGID_00000174578946276850802380000000746133572884533669_" gradientUnits="userSpaceOnUse" x1="480.713" y1="97.5249" x2="83.7131" y2="0.5249">
					<stop  offset="0" style="stop-color:#6921A3"/>
					<stop  offset="1" style="stop-color:#00CFC9"/>
				</linearGradient>
				<path style="fill:url(#SVGID_00000174578946276850802380000000746133572884533669_);" d="M433,118H482v31h-83.6V14.2H433
					L433,118L433,118z M468.9,132.7h-52V27.3h-2.1v107.1h54.1V132.7z"/>
			</g>
			<g>
				<g>
					<path class="st3" d="M526.4,80.8c-0.6-0.4-1.2-0.6-1.8-0.8c-0.7-0.2-1.5-0.3-2.6-0.3c-0.9,0-1.8,0.2-2.5,0.5s-1.4,0.8-2,1.3
						c-0.5,0.6-1,1.2-1.3,2s-0.4,1.6-0.4,2.5c0,0.9,0.2,1.8,0.5,2.6s0.8,1.4,1.3,2c0.5,0.6,1.2,1,1.9,1.3s1.5,0.4,2.3,0.4
						c0.4,0,0.7,0,1,0c0.3,0,0.5,0,0.7-0.1c0.2,0,0.3-0.1,0.5-0.1s0.3-0.1,0.4-0.1v-4.9h-3.4v-1.9h5.7v8.3c-0.4,0.2-1,0.3-1.8,0.5
						c-0.4,0.1-0.8,0.1-1.3,0.2c-0.5,0-1.1,0.1-1.7,0.1c-1.3,0-2.4-0.2-3.5-0.6s-1.9-0.9-2.7-1.7s-1.3-1.6-1.7-2.6s-0.6-2.2-0.6-3.5
						s0.2-2.4,0.6-3.4s1-1.9,1.8-2.6c0.8-0.7,1.7-1.3,2.7-1.7c1-0.4,2.2-0.6,3.4-0.6c0.6,0,1.1,0,1.5,0.1c0.4,0,0.8,0.1,1.2,0.2
						s0.7,0.2,1,0.3c0.3,0.1,0.6,0.2,1,0.3L526.4,80.8L526.4,80.8z"/>
					<path class="st3" d="M535,77.9h2.3v14h6.7v2h-9L535,77.9L535,77.9L535,77.9z"/>
					<path class="st3" d="M549.8,85.9c0-1.2,0.2-2.3,0.5-3.3c0.3-1,0.8-1.9,1.5-2.6s1.5-1.3,2.4-1.7s2-0.6,3.3-0.6s2.3,0.2,3.2,0.6
						s1.8,1,2.4,1.7c0.7,0.7,1.2,1.6,1.5,2.6c0.3,1,0.5,2.1,0.5,3.3s-0.2,2.3-0.5,3.4c-0.3,1-0.8,1.9-1.5,2.6
						c-0.7,0.7-1.5,1.3-2.4,1.7s-2,0.6-3.3,0.6s-2.3-0.2-3.3-0.6s-1.8-1-2.4-1.7c-0.7-0.7-1.2-1.6-1.5-2.6S549.8,87.2,549.8,85.9z
						 M552.2,85.9c0,0.8,0.1,1.6,0.3,2.3s0.5,1.4,1,2c0.4,0.6,1,1.1,1.7,1.4c0.7,0.4,1.5,0.5,2.4,0.5s1.7-0.2,2.4-0.5
						c0.7-0.4,1.2-0.8,1.6-1.4s0.8-1.2,1-2c0.2-0.8,0.3-1.5,0.3-2.3c0-0.8-0.1-1.6-0.3-2.4c-0.2-0.8-0.5-1.4-1-2
						c-0.4-0.6-1-1.1-1.7-1.4s-1.4-0.5-2.3-0.5c-0.9,0-1.7,0.2-2.3,0.5c-0.7,0.3-1.2,0.8-1.7,1.4c-0.4,0.6-0.8,1.3-1,2
						C552.4,84.4,552.2,85.1,552.2,85.9z"/>
					<path class="st3" d="M572.5,77.9h4.3c0.8,0,1.6,0.1,2.3,0.2c0.7,0.2,1.3,0.4,1.8,0.7s0.9,0.7,1.2,1.3s0.4,1.1,0.4,1.9
						c0,1.1-0.3,1.9-0.9,2.5c-0.6,0.6-1.4,1-2.4,1.3v0c0.5,0,1,0.2,1.5,0.4s0.8,0.5,1.2,0.8s0.6,0.7,0.8,1.2c0.2,0.5,0.3,1,0.3,1.5
						c0,0.9-0.2,1.6-0.5,2.1c-0.3,0.6-0.8,1-1.3,1.3s-1.2,0.5-2,0.7s-1.5,0.2-2.3,0.2h-4.3L572.5,77.9L572.5,77.9L572.5,77.9z
						 M574.8,84.8h1.3c0.5,0,1.1,0,1.6-0.1s0.9-0.2,1.3-0.3c0.4-0.2,0.7-0.4,0.9-0.8c0.2-0.3,0.3-0.8,0.3-1.4c0-0.5-0.1-0.9-0.3-1.2
						c-0.2-0.3-0.4-0.6-0.7-0.7c-0.3-0.2-0.6-0.3-1-0.4c-0.3-0.1-0.7-0.1-1-0.1h-2.4C574.8,79.8,574.8,84.8,574.8,84.8z M574.8,92.1
						h1.7c0.5,0,1,0,1.5-0.1s0.9-0.2,1.3-0.4c0.4-0.2,0.7-0.4,0.9-0.8c0.2-0.3,0.3-0.8,0.3-1.3c0-0.6-0.1-1.1-0.4-1.5
						s-0.6-0.7-1-0.9s-0.8-0.3-1.3-0.4c-0.5-0.1-1-0.1-1.5-0.1h-1.5L574.8,92.1L574.8,92.1z"/>
					<path class="st3" d="M595.9,77.9h2.4l6.8,16.1h-2.5l-1.6-4h-7.9l-1.6,4h-2.4L595.9,77.9z M597.1,80.1l-3.2,8h6.4L597.1,80.1z"
						/>
					<path class="st3" d="M611.6,77.9h2.3v14h6.7v2h-9L611.6,77.9L611.6,77.9L611.6,77.9z"/>
					<path class="st3" d="M641,79.9h-5v-2h12.3v2h-5v14H641L641,79.9L641,79.9L641,79.9z"/>
					<path class="st3" d="M654.6,77.9h3.9c0.4,0,0.8,0,1.2,0c0.4,0,0.8,0.1,1.1,0.1c0.4,0.1,0.7,0.1,1,0.2s0.7,0.2,0.9,0.4
						s0.6,0.3,0.8,0.6c0.2,0.2,0.4,0.5,0.6,0.8s0.3,0.6,0.4,1s0.1,0.8,0.1,1.3s-0.1,0.9-0.3,1.3c-0.2,0.4-0.4,0.8-0.7,1.1
						c-0.3,0.3-0.7,0.6-1,0.8c-0.4,0.2-0.8,0.3-1.3,0.4v0c0.2,0.1,0.3,0.2,0.5,0.2c0.2,0.1,0.3,0.2,0.4,0.3c0.2,0.2,0.5,0.6,0.7,1.1
						l3,6.4h-2.6l-2.5-5.6c-0.2-0.4-0.4-0.7-0.5-0.9s-0.4-0.4-0.6-0.5c-0.2-0.1-0.4-0.2-0.7-0.2c-0.2,0-0.5,0-0.8,0h-1.4V94h-2.3
						L654.6,77.9L654.6,77.9L654.6,77.9z M656.9,84.8h2c1.1,0,2-0.2,2.6-0.7c0.6-0.4,0.9-1.1,0.9-1.8s-0.3-1.3-0.8-1.8
						s-1.3-0.6-2.4-0.6h-2.2L656.9,84.8L656.9,84.8L656.9,84.8z"/>
					<path class="st3" d="M673,77.9h9v2h-6.7v4.7h6.1v2h-6.1V92h6.7v2h-9C673,94,673,77.9,673,77.9z"/>
					<path class="st3" d="M689.8,77.9h3.1l7.1,12.9h0V77.9h2.3V94h-2.9l-7.3-13.2h0V94h-2.3V77.9z"/>
					<path class="st3" d="M710.4,77.9h4.7c1.2,0,2.3,0.2,3.3,0.5c1,0.4,1.9,0.9,2.7,1.6c0.8,0.7,1.4,1.5,1.8,2.5s0.7,2.1,0.7,3.3
						c0,1.3-0.2,2.5-0.6,3.6c-0.4,1-1,1.9-1.7,2.6s-1.6,1.2-2.7,1.5c-1.1,0.3-2.2,0.5-3.6,0.5h-4.7L710.4,77.9L710.4,77.9z
						 M712.8,92h2.4c1,0,1.9-0.1,2.6-0.4c0.8-0.2,1.4-0.6,1.9-1.1s0.9-1.1,1.2-1.9c0.3-0.8,0.4-1.7,0.4-2.7c0-0.9-0.2-1.8-0.5-2.5
						c-0.3-0.7-0.7-1.4-1.2-1.9c-0.5-0.5-1.2-0.9-1.9-1.2c-0.7-0.3-1.5-0.4-2.3-0.4h-2.7C712.8,79.9,712.8,92,712.8,92z"/>
					<path class="st3" d="M738.6,80.3c-0.3-0.1-0.5-0.2-0.8-0.3s-0.5-0.2-0.7-0.2s-0.5-0.1-0.7-0.1c-0.2,0-0.5,0-0.8,0
						c-0.3,0-0.7,0-1,0.1c-0.3,0.1-0.6,0.2-0.9,0.3c-0.3,0.2-0.5,0.4-0.7,0.7c-0.2,0.3-0.3,0.6-0.3,1c0,0.5,0.2,0.9,0.5,1.3
						c0.3,0.3,0.8,0.6,1.3,0.9c0.5,0.3,1.1,0.5,1.7,0.8c0.4,0.2,0.9,0.4,1.3,0.7c0.4,0.3,0.8,0.6,1.1,0.9c0.3,0.4,0.6,0.8,0.8,1.3
						s0.3,1.1,0.3,1.7c0,0.8-0.2,1.6-0.5,2.2s-0.7,1.1-1.3,1.5c-0.5,0.4-1.2,0.7-1.9,0.8s-1.5,0.3-2.3,0.3c-0.6,0-1.1-0.1-1.7-0.2
						c-0.5-0.1-1.1-0.3-1.6-0.5l0.2-2.1c0.2,0.1,0.4,0.2,0.7,0.2s0.5,0.2,0.8,0.2s0.6,0.1,0.9,0.2c0.3,0.1,0.6,0.1,0.9,0.1
						c0.3,0,0.7-0.1,1-0.2s0.7-0.2,1-0.5c0.3-0.2,0.6-0.5,0.8-0.8s0.3-0.7,0.3-1.2s-0.1-0.8-0.3-1.2s-0.5-0.6-0.8-0.8
						s-0.7-0.5-1.1-0.7c-0.4-0.2-0.8-0.4-1.3-0.6s-0.8-0.4-1.3-0.7c-0.4-0.2-0.8-0.5-1.1-0.9c-0.3-0.3-0.6-0.7-0.8-1.2
						s-0.3-1-0.3-1.6c0-0.7,0.1-1.3,0.4-1.9c0.3-0.6,0.6-1,1.1-1.4s1-0.7,1.6-0.8s1.3-0.3,2-0.3c0.5,0,1.1,0,1.7,0.1
						c0.6,0.1,1.2,0.2,1.7,0.4L738.6,80.3L738.6,80.3z"/>
					<path class="st4" d="M514.2,105.3h2.3v16.1h-2.3V105.3z"/>
					<path class="st3" d="M524.8,105.3h3.1l7.1,12.9h0v-12.9h2.3v16.1h-2.9l-7.3-13.2h0v13.2h-2.3V105.3z"/>
					<path class="st3" d="M556.2,105.3h9v2h-6.7v4.7h6.1v2h-6.1v5.3h6.7v2h-9C556.2,121.3,556.2,105.3,556.2,105.3z"/>
					<path class="st3" d="M571.8,114.3h5.9v1.8h-5.9V114.3z"/>
					<path class="st3" d="M584.8,105.3h2.3v14h6.7v2h-9L584.8,105.3L584.8,105.3L584.8,105.3z"/>
					<path class="st3" d="M600.5,105.3h9v2h-6.7v4.7h6.1v2h-6.1v5.3h6.7v2h-9C600.5,121.3,600.5,105.3,600.5,105.3z"/>
					<path class="st3" d="M622.5,105.3h2.4l6.8,16.1h-2.5l-1.6-4h-7.9l-1.6,4h-2.4L622.5,105.3z M623.6,107.5l-3.2,8h6.4
						L623.6,107.5z"/>
					<path class="st3" d="M638,105.3h3.9c0.4,0,0.8,0,1.2,0c0.4,0,0.8,0.1,1.1,0.1c0.4,0.1,0.7,0.1,1,0.2s0.7,0.2,0.9,0.4
						s0.6,0.3,0.8,0.6c0.2,0.2,0.4,0.5,0.6,0.8s0.3,0.6,0.4,1s0.1,0.8,0.1,1.3s-0.1,0.9-0.3,1.3c-0.2,0.4-0.4,0.8-0.7,1.1
						c-0.3,0.3-0.7,0.6-1,0.8c-0.4,0.2-0.8,0.3-1.3,0.4v0c0.2,0.1,0.3,0.2,0.5,0.2c0.2,0.1,0.3,0.2,0.4,0.3c0.2,0.2,0.5,0.6,0.7,1.1
						l3,6.4h-2.6l-2.5-5.6c-0.2-0.4-0.4-0.7-0.5-0.9s-0.4-0.4-0.6-0.5c-0.2-0.1-0.4-0.2-0.7-0.2c-0.2,0-0.5,0-0.8,0h-1.4v7.1H638
						L638,105.3L638,105.3L638,105.3z M640.3,112.2h2c1.1,0,2-0.2,2.6-0.7c0.6-0.4,0.9-1.1,0.9-1.8s-0.3-1.3-0.8-1.8
						s-1.3-0.6-2.4-0.6h-2.2L640.3,112.2L640.3,112.2L640.3,112.2z"/>
					<path class="st3" d="M656.3,105.3h3.1l7.1,12.9h0v-12.9h2.3v16.1h-2.9l-7.3-13.2h0v13.2h-2.3V105.3z"/>
					<path class="st3" d="M677,105.3h2.3v16.1H677V105.3z"/>
					<path class="st3" d="M687.6,105.3h3.1l7.1,12.9h0v-12.9h2.3v16.1h-2.9l-7.3-13.2h0v13.2h-2.3V105.3z"/>
					<path class="st3" d="M720.5,108.2c-0.6-0.4-1.2-0.6-1.8-0.8c-0.7-0.2-1.5-0.3-2.6-0.3c-0.9,0-1.8,0.2-2.5,0.5s-1.4,0.8-2,1.3
						c-0.5,0.6-1,1.2-1.3,2s-0.4,1.6-0.4,2.5c0,0.9,0.2,1.8,0.5,2.6s0.8,1.4,1.3,2c0.5,0.6,1.2,1,1.9,1.3s1.5,0.4,2.3,0.4
						c0.4,0,0.7,0,1,0c0.3,0,0.5,0,0.7-0.1c0.2,0,0.3-0.1,0.5-0.1s0.3-0.1,0.4-0.1v-4.9h-3.4v-1.9h5.7v8.3c-0.4,0.2-1,0.3-1.8,0.5
						c-0.4,0.1-0.8,0.1-1.3,0.2c-0.5,0-1.1,0.1-1.7,0.1c-1.3,0-2.4-0.2-3.5-0.6s-1.9-0.9-2.7-1.7s-1.3-1.6-1.7-2.6s-0.6-2.2-0.6-3.5
						s0.2-2.4,0.6-3.4s1-1.9,1.8-2.6c0.8-0.7,1.7-1.3,2.7-1.7c1-0.4,2.2-0.6,3.4-0.6c0.6,0,1.1,0,1.5,0.1c0.4,0,0.8,0.1,1.2,0.2
						s0.7,0.2,1,0.3c0.3,0.1,0.6,0.2,1,0.3L720.5,108.2L720.5,108.2z"/>
					<path class="st3" d="M513.2,145.7c0.4-0.4,0.8-0.7,1.2-1.1s0.8-0.7,1.2-1.1s0.8-0.7,1.2-1.1c0.4-0.4,0.7-0.7,1.1-1.1
						s0.7-0.7,0.9-1c0.3-0.3,0.5-0.7,0.7-1c0.2-0.3,0.4-0.6,0.5-0.9c0.1-0.3,0.2-0.6,0.2-0.9c0-0.7-0.2-1.2-0.7-1.6s-1-0.5-1.6-0.5
						c-0.3,0-0.7,0-1.1,0.1s-0.8,0.1-1.2,0.2c-0.4,0.1-0.7,0.2-1.1,0.4s-0.6,0.3-0.9,0.4l-0.2-3.3c1.2-0.4,2.1-0.7,2.9-0.8
						c0.8-0.1,1.4-0.2,1.9-0.2c0.9,0,1.7,0.1,2.5,0.3c0.8,0.2,1.4,0.5,2,0.9c0.5,0.4,1,0.9,1.3,1.5c0.3,0.6,0.5,1.3,0.5,2.1
						s-0.2,1.5-0.6,2.3c-0.2,0.4-0.4,0.8-0.6,1.1s-0.5,0.7-0.7,1c-0.3,0.3-0.5,0.7-0.8,0.9c-0.3,0.3-0.5,0.6-0.8,0.9
						c-0.5,0.6-1,1-1.4,1.3l-1.2,1h6.3v3h-11.6L513.2,145.7L513.2,145.7z"/>
					<path class="st3" d="M537.5,149c-1.3,0-2.4-0.2-3.2-0.7c-0.8-0.5-1.5-1.1-1.9-1.9c-0.4-0.8-0.7-1.7-0.9-2.7
						c-0.1-0.5-0.1-1-0.2-1.5c0-0.5-0.1-1-0.1-1.6s0-1,0.1-1.5c0-0.5,0.1-1,0.2-1.5c0.2-1,0.5-1.9,0.9-2.6c0.4-0.8,1.1-1.4,1.9-1.9
						s1.9-0.7,3.2-0.7s2.4,0.2,3.2,0.7c0.8,0.5,1.4,1.1,1.9,1.9c0.5,0.8,0.8,1.7,0.9,2.6c0.2,1,0.2,2,0.2,3.1s-0.1,2.1-0.2,3.1
						c-0.1,1-0.4,1.9-0.9,2.7c-0.4,0.8-1.1,1.4-1.9,1.9C539.9,148.8,538.8,149,537.5,149L537.5,149z M537.5,146.1
						c0.3,0,0.6-0.1,0.8-0.2c0.2-0.1,0.4-0.4,0.6-0.6s0.3-0.6,0.4-0.9c0.1-0.4,0.2-0.7,0.2-1.1c0-0.4,0.1-0.8,0.1-1.2
						c0-0.4,0-0.9,0-1.3c0-0.6,0-1.3-0.1-1.9s-0.1-1.2-0.3-1.7s-0.3-0.9-0.6-1.3s-0.7-0.5-1.1-0.5c-0.3,0-0.6,0.1-0.8,0.2
						c-0.2,0.1-0.4,0.4-0.6,0.6s-0.3,0.6-0.4,0.9c-0.1,0.4-0.2,0.7-0.2,1.1c0,0.4-0.1,0.8-0.1,1.2c0,0.4,0,0.9,0,1.3
						c0,0.4,0,0.9,0,1.3s0,0.9,0.1,1.2c0,0.4,0.1,0.8,0.2,1.1s0.2,0.7,0.4,0.9c0.2,0.3,0.3,0.5,0.6,0.6
						C536.8,146,537.1,146.1,537.5,146.1z"/>
					<path class="st3" d="M549.6,145.7c0.4-0.4,0.8-0.7,1.2-1.1s0.8-0.7,1.2-1.1s0.8-0.7,1.2-1.1c0.4-0.4,0.7-0.7,1.1-1.1
						s0.7-0.7,0.9-1c0.3-0.3,0.5-0.7,0.7-1c0.2-0.3,0.4-0.6,0.5-0.9c0.1-0.3,0.2-0.6,0.2-0.9c0-0.7-0.2-1.2-0.7-1.6s-1-0.5-1.6-0.5
						c-0.3,0-0.7,0-1.1,0.1s-0.8,0.1-1.2,0.2c-0.4,0.1-0.7,0.2-1.1,0.4s-0.6,0.3-0.9,0.4l-0.2-3.3c1.2-0.4,2.1-0.7,2.9-0.8
						c0.8-0.1,1.4-0.2,1.9-0.2c0.9,0,1.7,0.1,2.5,0.3c0.8,0.2,1.4,0.5,2,0.9c0.5,0.4,1,0.9,1.3,1.5c0.3,0.6,0.5,1.3,0.5,2.1
						s-0.2,1.5-0.6,2.3c-0.2,0.4-0.4,0.8-0.6,1.1s-0.5,0.7-0.7,1c-0.3,0.3-0.5,0.7-0.8,0.9c-0.3,0.3-0.5,0.6-0.8,0.9
						c-0.5,0.6-1,1-1.4,1.3l-1.2,1h6.3v3h-11.6L549.6,145.7L549.6,145.7z"/>
					<text transform="matrix(1 0 0 1 566.127 148.3818)" class="st3 st5 st6">3</text>
				</g>
				<g>
					<path class="st3" d="M519.5,27.2c0,0.3,0,0.5,0,0.7c0,0.2,0.1,0.4,0.2,0.5c0.1,0.1,0.3,0.2,0.5,0.2s0.4,0.1,0.8,0.1h0.8
						c0.3,0,0.5,0,0.6,0.1c0.1,0.1,0.2,0.2,0.2,0.5v0.8c0,0.1,0,0.2-0.1,0.3c0,0.1-0.1,0.1-0.2,0.2s-0.2,0.1-0.2,0.1
						c-0.1,0-0.2,0-0.3,0h-1.3c-0.5,0-0.9,0-1.2-0.1s-0.6-0.2-0.8-0.4s-0.4-0.3-0.5-0.5s-0.2-0.4-0.3-0.6c-0.5,0.3-1.1,0.6-1.5,0.7
						c-0.5,0.1-1,0.2-1.5,0.2c-0.4,0-0.9-0.1-1.3-0.2c-0.5-0.1-0.8-0.3-1.2-0.6c-0.4-0.3-0.7-0.6-0.9-1s-0.4-0.9-0.4-1.5
						c0-0.5,0.1-1,0.3-1.5s0.5-0.8,0.9-1.2c0.4-0.4,0.8-0.6,1.3-0.9c0.5-0.3,1-0.5,1.5-0.7c0.5-0.2,1-0.4,1.5-0.5s0.9-0.3,1.3-0.4
						v-1.2h2L519.5,27.2L519.5,27.2L519.5,27.2z M517.5,23.4c-0.7,0.1-1.4,0.3-2,0.5c-0.6,0.2-1.1,0.4-1.5,0.7
						c-0.4,0.2-0.8,0.5-1,0.9c-0.2,0.3-0.4,0.7-0.4,1.1c0,0.3,0.1,0.6,0.2,0.8c0.1,0.2,0.3,0.4,0.5,0.5c0.2,0.1,0.5,0.2,0.7,0.3
						s0.5,0.1,0.8,0.1c0.5,0,1-0.1,1.4-0.2c0.4-0.1,0.8-0.3,1.2-0.5L517.5,23.4L517.5,23.4L517.5,23.4z M514,17.8
						c0-0.2,0-0.3,0.1-0.5s0.1-0.3,0.2-0.4c0.1-0.1,0.2-0.2,0.4-0.2s0.3-0.1,0.5-0.1s0.3,0,0.5,0.1c0.1,0.1,0.3,0.1,0.4,0.2
						c0.1,0.1,0.2,0.2,0.2,0.4s0.1,0.3,0.1,0.5s0,0.3-0.1,0.5c-0.1,0.1-0.2,0.3-0.2,0.4c-0.1,0.1-0.2,0.2-0.4,0.2s-0.3,0.1-0.5,0.1
						c-0.3,0-0.6-0.1-0.8-0.3C514.1,18.4,514,18.1,514,17.8z M517.2,17.8c0-0.2,0-0.3,0.1-0.5c0.1-0.1,0.1-0.3,0.2-0.4
						c0.1-0.1,0.2-0.2,0.4-0.2s0.3-0.1,0.5-0.1s0.3,0,0.5,0.1c0.1,0.1,0.3,0.1,0.4,0.2c0.1,0.1,0.2,0.2,0.2,0.4s0.1,0.3,0.1,0.5
						s0,0.3-0.1,0.5c-0.1,0.1-0.2,0.3-0.2,0.4c-0.1,0.1-0.2,0.2-0.4,0.2s-0.3,0.1-0.5,0.1c-0.3,0-0.6-0.1-0.8-0.3
						C517.3,18.4,517.2,18.1,517.2,17.8z"/>
					<path class="st3" d="M526.7,28.1c0.3,0.2,0.7,0.4,1.2,0.5s1,0.2,1.6,0.2h0.1c0.3,0,0.5,0,0.6,0.1c0.1,0.1,0.2,0.2,0.2,0.5v0.8
						c0,0.1,0,0.2-0.1,0.3c0,0.1-0.1,0.1-0.2,0.2s-0.2,0.1-0.2,0.1c-0.1,0-0.2,0-0.3,0h-0.1c-0.8,0-1.4-0.1-1.9-0.3
						c-0.5-0.2-0.9-0.5-1.3-0.8c-0.2,0.3-0.4,0.5-0.7,0.7c-0.3,0.2-0.7,0.3-1.2,0.3h-2.6c-0.3,0-0.5,0-0.6-0.1
						c-0.1-0.1-0.2-0.2-0.2-0.5v-0.8c0-0.1,0-0.2,0.1-0.3c0-0.1,0.1-0.1,0.2-0.2s0.2-0.1,0.2-0.1c0.1,0,0.2,0,0.3,0h2.2
						c0.2,0,0.4-0.1,0.6-0.3s0.2-0.5,0.2-0.9v-5.3h2V28.1z M522.9,34.1c0-0.2,0-0.3,0.1-0.5c0.1-0.1,0.1-0.3,0.2-0.4
						c0.1-0.1,0.2-0.2,0.4-0.2s0.3-0.1,0.5-0.1s0.3,0,0.5,0.1c0.1,0.1,0.3,0.2,0.4,0.2c0.1,0.1,0.2,0.2,0.2,0.4s0.1,0.3,0.1,0.5
						s0,0.3-0.1,0.5c-0.1,0.1-0.2,0.3-0.2,0.4c-0.1,0.1-0.2,0.2-0.4,0.2s-0.3,0.1-0.5,0.1c-0.3,0-0.6-0.1-0.8-0.3
						C523,34.7,522.9,34.4,522.9,34.1z M526,34.1c0-0.2,0-0.3,0.1-0.5c0.1-0.1,0.1-0.3,0.2-0.4c0.1-0.1,0.2-0.2,0.4-0.2
						s0.3-0.1,0.5-0.1s0.3,0,0.5,0.1c0.1,0.1,0.3,0.2,0.4,0.2c0.1,0.1,0.2,0.2,0.2,0.4s0.1,0.3,0.1,0.5s0,0.3-0.1,0.5
						c-0.1,0.1-0.2,0.3-0.2,0.4c-0.1,0.1-0.2,0.2-0.4,0.2s-0.3,0.1-0.5,0.1c-0.3,0-0.6-0.1-0.8-0.3C526.1,34.7,526,34.4,526,34.1z"
						/>
					<path class="st3" d="M533,29.2c-0.2,0.3-0.3,0.5-0.5,0.7s-0.4,0.4-0.6,0.5s-0.4,0.2-0.7,0.2c-0.2,0-0.5,0.1-0.8,0.1h-0.9
						c-0.3,0-0.5,0-0.6-0.1c-0.1-0.1-0.2-0.2-0.2-0.5v-0.8c0-0.1,0-0.2,0.1-0.3c0-0.1,0.1-0.1,0.2-0.2s0.2-0.1,0.2-0.1
						c0.1,0,0.2,0,0.3,0h0.5c0.5,0,0.9-0.1,1.2-0.3s0.6-0.5,0.7-1c0.2-0.8,0.5-1.5,0.7-2c0.3-0.6,0.5-1,0.8-1.5
						c0.3-0.4,0.6-0.7,0.9-1s0.6-0.4,0.9-0.6c0.3-0.1,0.6-0.2,0.8-0.3s0.5-0.1,0.7-0.1c0.5,0,0.9,0.1,1.3,0.2s0.8,0.3,1.1,0.6
						s0.6,0.5,0.8,0.8c0.2,0.3,0.4,0.6,0.6,1c0.2,0.3,0.3,0.7,0.3,1c0.1,0.4,0.1,0.7,0.1,1c0,0.4-0.1,0.8-0.2,1.3
						c0.3,0.3,0.8,0.5,1.2,0.6s1,0.2,1.7,0.2h0.1c0.3,0,0.5,0,0.6,0.1c0.1,0.1,0.2,0.2,0.2,0.5v0.8c0,0.1,0,0.2-0.1,0.3
						c0,0.1-0.1,0.1-0.2,0.2s-0.2,0.1-0.2,0.1c-0.1,0-0.2,0-0.3,0h-0.1c-0.5,0-0.9,0-1.2-0.1c-0.4-0.1-0.7-0.2-1-0.3
						c-0.3-0.1-0.5-0.3-0.8-0.5c-0.2-0.2-0.4-0.4-0.6-0.6c-0.3,0.4-0.8,0.8-1.3,1.1s-1.2,0.4-2,0.4c-0.5,0-0.9,0-1.3-0.1
						c-0.4-0.1-0.8-0.2-1.1-0.4s-0.6-0.3-0.9-0.5C533.4,29.6,533.2,29.4,533,29.2L533,29.2z M539.5,27c0-0.3,0-0.6-0.2-0.9
						c-0.1-0.3-0.2-0.7-0.5-1s-0.5-0.6-0.8-0.8c-0.3-0.2-0.7-0.3-1.2-0.3s-0.8,0.1-1.2,0.3c-0.4,0.2-0.7,0.5-0.9,0.9
						s-0.5,0.8-0.7,1.3s-0.3,1-0.4,1.5c0.1,0.1,0.2,0.2,0.4,0.3s0.5,0.2,0.7,0.3c0.3,0.1,0.6,0.2,0.9,0.2s0.6,0.1,0.9,0.1
						c0.4,0,0.8,0,1.1-0.1s0.6-0.2,0.9-0.3c0.2-0.1,0.4-0.3,0.6-0.6C539.4,27.7,539.5,27.3,539.5,27z"/>
					<path class="st3" d="M544,30.8c-0.3,0-0.5,0-0.6-0.1c-0.1-0.1-0.2-0.2-0.2-0.5v-0.8c0-0.1,0-0.2,0.1-0.3c0-0.1,0.1-0.1,0.2-0.2
						s0.2-0.1,0.2-0.1c0.1,0,0.2,0,0.3,0h3V14.9h2v15.8H544L544,30.8z"/>
					<path class="st3" d="M552.5,15h2v11.8c0,0.4,0,0.7,0,1c0,0.3,0.1,0.5,0.2,0.6c0.1,0.1,0.2,0.3,0.3,0.3s0.3,0.1,0.6,0.1h0.7
						c0.3,0,0.5,0,0.6,0.1c0.1,0.1,0.2,0.2,0.2,0.5v0.8c0,0.1,0,0.2-0.1,0.3c0,0.1-0.1,0.1-0.2,0.2s-0.2,0.1-0.2,0.1
						c-0.1,0-0.2,0-0.3,0h-1c-0.5,0-0.9-0.1-1.3-0.2c-0.3-0.2-0.6-0.4-0.9-0.7c-0.2-0.3-0.4-0.6-0.5-1s-0.2-0.8-0.2-1.3V15z"/>
					<path class="st3" d="M561.1,28.3c-0.3-0.2-0.6-0.5-0.9-0.9c-0.3-0.3-0.6-0.7-0.8-1c-0.3-0.4-0.5-0.7-0.7-1
						c-0.2-0.3-0.4-0.5-0.5-0.7c0-0.1,0.1-0.3,0.1-0.5s0.1-0.4,0.2-0.6c0.1-0.2,0.1-0.4,0.2-0.5c0.1-0.1,0.2-0.2,0.2-0.3
						c0.2-0.1,0.5-0.3,0.8-0.4c0.3-0.1,0.7-0.3,1.1-0.4s0.8-0.2,1.3-0.3c0.5-0.1,1-0.1,1.5-0.1c0.4,0,0.8,0,1.2,0.1s0.8,0.2,1.1,0.4
						c0.3,0.1,0.6,0.4,0.8,0.6s0.3,0.5,0.3,0.8c0,0.2,0,0.5-0.1,0.8s-0.2,0.7-0.3,1.1c-0.2,0.4-0.4,0.8-0.8,1.3
						c-0.3,0.5-0.8,1-1.3,1.5c0.2,0.1,0.4,0.1,0.6,0.2s0.5,0.1,0.8,0.2c0.3,0,0.6,0.1,1,0.1c0.3,0,0.7,0,1.1,0h0.9
						c0.3,0,0.5,0,0.6,0.1c0.1,0.1,0.2,0.2,0.2,0.5v0.8c0,0.1,0,0.2-0.1,0.3c0,0.1-0.1,0.1-0.2,0.2s-0.2,0.1-0.2,0.1
						c-0.1,0-0.2,0-0.3,0h-1.5c-0.6,0-1.2,0-1.7-0.1c-0.5-0.1-1-0.2-1.4-0.3c-0.4-0.1-0.8-0.3-1.1-0.4s-0.5-0.3-0.7-0.4
						c-0.3,0.2-0.6,0.3-1,0.5s-0.7,0.3-1.1,0.4c-0.4,0.1-0.8,0.2-1.3,0.3s-0.9,0.1-1.4,0.1h-1.4c-0.3,0-0.5,0-0.6-0.1
						c-0.1-0.1-0.2-0.2-0.2-0.5v-0.8c0-0.1,0-0.2,0.1-0.3c0-0.1,0.1-0.1,0.2-0.2s0.2-0.1,0.2-0.1c0.1,0,0.2,0,0.3,0h1.5
						c0.4,0,0.8,0,1.1,0s0.7-0.1,0.9-0.1c0.3,0,0.5-0.1,0.7-0.2C560.9,28.4,561,28.3,561.1,28.3L561.1,28.3z M565,24.6
						c0-0.2,0-0.3-0.2-0.5c-0.1-0.1-0.2-0.3-0.5-0.4s-0.4-0.2-0.7-0.3s-0.6-0.1-1-0.1c-0.4,0-0.9,0-1.3,0.2s-1,0.3-1.6,0.5
						c0.1,0.2,0.2,0.4,0.5,0.7s0.5,0.6,0.7,0.9c0.3,0.3,0.6,0.6,0.9,0.9c0.3,0.3,0.6,0.5,0.9,0.7c0.3-0.2,0.7-0.4,0.9-0.7
						c0.3-0.3,0.5-0.5,0.7-0.8s0.3-0.5,0.5-0.7C565,25,565,24.8,565,24.6L565,24.6z"/>
					<path class="st3" d="M568.9,30.8c-0.3,0-0.5,0-0.6-0.1c-0.1-0.1-0.2-0.2-0.2-0.5v-0.8c0-0.1,0-0.2,0.1-0.3
						c0-0.1,0.1-0.1,0.2-0.2s0.2-0.1,0.2-0.1c0.1,0,0.2,0,0.3,0h3V14.9h2v15.8H568.9L568.9,30.8z"/>
					<path class="st3" d="M577.6,15h2v15.8h-2V15z"/>
					<path class="st3" d="M593.8,30.8c-0.9,0-1.6,0-2.3-0.1c-0.6-0.1-1.2-0.2-1.6-0.4s-0.8-0.4-1.1-0.6c-0.3-0.2-0.5-0.5-0.6-0.8
						s-0.2-0.6-0.3-1s-0.1-0.7-0.1-1.1c0-0.1,0-0.3,0-0.5s0-0.4,0-0.6c0-0.2,0-0.4,0.1-0.6c0-0.2,0-0.4,0.1-0.5l1.9,0.2
						c0,0.3-0.1,0.5-0.1,0.8s0,0.5,0,0.8c0,0.4,0,0.8,0.2,1.1c0.1,0.3,0.3,0.6,0.7,0.8c0.4,0.2,0.9,0.3,1.6,0.4
						c0.7,0.1,1.6,0.1,2.8,0.1h8.9v-6.5h2v8.5L593.8,30.8L593.8,30.8L593.8,30.8z M594.8,18.3c0-0.2,0-0.3,0.1-0.5
						c0.1-0.1,0.1-0.3,0.2-0.4c0.1-0.1,0.2-0.2,0.4-0.2s0.3-0.1,0.5-0.1s0.3,0,0.5,0.1c0.1,0.1,0.3,0.1,0.4,0.2
						c0.1,0.1,0.2,0.2,0.2,0.4s0.1,0.3,0.1,0.5s0,0.3-0.1,0.5c-0.1,0.1-0.2,0.3-0.2,0.4c-0.1,0.1-0.2,0.2-0.4,0.2s-0.3,0.1-0.5,0.1
						c-0.3,0-0.6-0.1-0.8-0.3C594.9,18.9,594.8,18.6,594.8,18.3z M597.9,18.3c0-0.2,0-0.3,0.1-0.5c0.1-0.1,0.1-0.3,0.2-0.4
						c0.1-0.1,0.2-0.2,0.4-0.2s0.3-0.1,0.5-0.1c0.2,0,0.3,0,0.5,0.1c0.1,0.1,0.3,0.1,0.4,0.2c0.1,0.1,0.2,0.2,0.2,0.4
						s0.1,0.3,0.1,0.5s0,0.3-0.1,0.5c-0.1,0.1-0.2,0.3-0.2,0.4c-0.1,0.1-0.2,0.2-0.4,0.2s-0.3,0.1-0.5,0.1c-0.3,0-0.6-0.1-0.8-0.3
						C598,18.9,597.9,18.6,597.9,18.3z"/>
					<path class="st3" d="M609.4,15h2v11.8c0,0.4,0,0.7,0,1c0,0.3,0.1,0.5,0.2,0.6c0.1,0.1,0.2,0.3,0.3,0.3s0.3,0.1,0.6,0.1h0.7
						c0.3,0,0.5,0,0.6,0.1s0.2,0.2,0.2,0.5v0.8c0,0.1,0,0.2-0.1,0.3c0,0.1-0.1,0.1-0.2,0.2s-0.2,0.1-0.2,0.1c-0.1,0-0.2,0-0.3,0h-1
						c-0.5,0-0.9-0.1-1.3-0.2c-0.3-0.2-0.6-0.4-0.9-0.7c-0.2-0.3-0.4-0.6-0.5-1s-0.2-0.8-0.2-1.3V15z"/>
					<path class="st3" d="M613.3,30.8c-0.3,0-0.5,0-0.6-0.1c-0.1-0.1-0.2-0.2-0.2-0.5v-0.8c0-0.1,0-0.2,0.1-0.3
						c0-0.1,0.1-0.1,0.2-0.2s0.2-0.1,0.2-0.1c0.1,0,0.2,0,0.3,0h2.7c0.2-0.8,0.4-1.6,0.7-2.3s0.6-1.2,0.9-1.8s0.7-0.9,1-1.3
						s0.7-0.6,1-0.9c0.3-0.2,0.6-0.4,0.8-0.5c0.2-0.1,0.5-0.1,0.6-0.1c0.4,0,0.8,0.1,1.2,0.4s0.7,0.5,1,0.9s0.5,0.8,0.6,1.3
						s0.2,1,0.2,1.5c0,0.6-0.1,1.1-0.3,1.5s-0.5,0.9-0.8,1.2v0.1h3.4c0.3,0,0.5,0,0.6,0.1s0.2,0.2,0.2,0.5v0.8c0,0.1,0,0.2-0.1,0.3
						c0,0.1-0.1,0.1-0.2,0.2s-0.2,0.1-0.2,0.1c-0.1,0-0.2,0-0.3,0h-3.6v0.1c0.3,0.3,0.6,0.7,0.8,1.1c0.2,0.5,0.3,1,0.3,1.6
						c0,0.6-0.1,1.1-0.3,1.6c-0.2,0.5-0.5,0.8-0.8,1.2s-0.7,0.5-1.1,0.7s-0.8,0.2-1.2,0.2c-0.3,0-0.6,0-1-0.1
						c-0.3-0.1-0.7-0.2-1-0.4s-0.7-0.5-1-0.8c-0.3-0.3-0.6-0.7-0.9-1.2c-0.2-0.5-0.5-1-0.6-1.7c-0.2-0.7-0.2-1.4-0.2-2.3L613.3,30.8
						L613.3,30.8L613.3,30.8z M617.5,30.8c0,0.8,0.1,1.5,0.3,2.1c0.2,0.6,0.5,1.1,0.8,1.4c0.3,0.4,0.6,0.6,1,0.8s0.7,0.2,1,0.2
						c0.2,0,0.4-0.1,0.6-0.2c0.2-0.1,0.3-0.3,0.5-0.4s0.2-0.4,0.3-0.6s0.1-0.5,0.1-0.7c0-0.3-0.1-0.7-0.2-1s-0.3-0.6-0.5-0.8
						c-0.2-0.2-0.5-0.4-0.8-0.6s-0.6-0.2-1-0.2L617.5,30.8L617.5,30.8z M622.2,26.5c0-0.3,0-0.6-0.1-0.9c-0.1-0.3-0.2-0.5-0.4-0.8
						s-0.3-0.4-0.5-0.5s-0.4-0.2-0.6-0.2c-0.1,0-0.2,0.1-0.4,0.2s-0.3,0.3-0.5,0.5c-0.2,0.2-0.4,0.5-0.6,0.8s-0.4,0.6-0.5,1
						s-0.3,0.7-0.4,1.1c-0.1,0.4-0.2,0.8-0.2,1.2h1.9c0.4,0,0.7-0.1,1-0.2c0.3-0.1,0.6-0.3,0.8-0.5s0.4-0.5,0.5-0.7
						C622.1,27.1,622.2,26.8,622.2,26.5z"/>
					<path class="st3" d="M628.3,22.1c0.4-0.1,0.9-0.2,1.3-0.3c0.4-0.1,1-0.1,1.5-0.1s1.1,0.1,1.5,0.3c0.4,0.2,0.8,0.4,1.1,0.7
						s0.6,0.7,0.8,1.1c0.2,0.4,0.3,0.9,0.4,1.4c0.1,0.5,0.2,0.9,0.2,1.4c0.1,0.4,0.2,0.8,0.3,1.1s0.3,0.6,0.4,0.8
						c0.2,0.2,0.4,0.3,0.7,0.3v2h-10.3c-0.3,0-0.5,0-0.6-0.1c-0.1-0.1-0.2-0.2-0.2-0.5v-0.8c0-0.1,0-0.2,0.1-0.3
						c0-0.1,0.1-0.1,0.2-0.2s0.2-0.1,0.2-0.1c0.1,0,0.2,0,0.3,0h7.8c-0.2-0.1-0.3-0.4-0.4-0.6c-0.1-0.3-0.2-0.6-0.2-1.1
						c-0.1-0.4-0.1-0.9-0.2-1.3c-0.1-0.4-0.2-0.8-0.4-1.1s-0.5-0.6-0.8-0.8c-0.3-0.2-0.8-0.3-1.4-0.3c-0.2,0-0.3,0-0.5,0
						c-0.2,0-0.4,0.1-0.6,0.1c-0.2,0-0.4,0.1-0.6,0.1s-0.3,0.1-0.5,0.2L628.3,22.1L628.3,22.1L628.3,22.1z M630.5,34.1
						c0-0.2,0-0.3,0.1-0.5c0.1-0.1,0.1-0.3,0.2-0.4c0.1-0.1,0.2-0.2,0.4-0.2s0.3-0.1,0.5-0.1c0.2,0,0.3,0,0.5,0.1
						c0.1,0.1,0.3,0.2,0.4,0.2c0.1,0.1,0.2,0.2,0.2,0.4s0.1,0.3,0.1,0.5s0,0.3-0.1,0.5c-0.1,0.1-0.2,0.3-0.2,0.4s-0.2,0.2-0.4,0.2
						s-0.3,0.1-0.5,0.1c-0.3,0-0.6-0.1-0.8-0.3C630.7,34.7,630.5,34.4,630.5,34.1z"/>
					<path class="st3" d="M644.1,30.8c-0.9,0-1.7-0.1-2.3-0.4c-0.6-0.3-1.1-0.6-1.5-1s-0.7-0.9-0.8-1.4c-0.2-0.5-0.2-1-0.2-1.5
						c0-0.6,0.1-1.2,0.3-1.8c0.2-0.6,0.5-1,1-1.5c0.4-0.4,0.9-0.7,1.5-1c0.6-0.2,1.2-0.4,2-0.4c0.3,0,0.6,0,0.9,0.1
						c0.3,0.1,0.6,0.1,0.9,0.3c0.3,0.1,0.6,0.3,0.9,0.6c0.3,0.2,0.5,0.5,0.7,0.9c0.2,0.4,0.4,0.8,0.5,1.3s0.2,1.1,0.2,1.8v1.9h2.4
						c0.3,0,0.5,0,0.6,0.1c0.1,0.1,0.2,0.2,0.2,0.5v0.8c0,0.1,0,0.2-0.1,0.3c0,0.1-0.1,0.1-0.2,0.2s-0.2,0.1-0.2,0.1
						c-0.1,0-0.2,0-0.3,0h-2.5c-0.2,0.8-0.5,1.5-0.9,2s-1,1-1.6,1.4s-1.3,0.7-2.1,0.8c-0.8,0.2-1.6,0.3-2.5,0.4l-0.2-1.9
						c1.5-0.1,2.7-0.4,3.6-0.9c0.9-0.5,1.5-1.1,1.7-1.9L644.1,30.8L644.1,30.8z M646.1,28.8v-1.2c0-0.8-0.1-1.4-0.2-1.9
						c-0.1-0.5-0.3-0.9-0.6-1.2s-0.5-0.5-0.8-0.6c-0.3-0.1-0.6-0.1-0.9-0.1c-0.3,0-0.7,0.1-1,0.2c-0.3,0.1-0.5,0.3-0.8,0.5
						c-0.2,0.2-0.4,0.5-0.5,0.8s-0.2,0.7-0.2,1c0,0.3,0,0.6,0.2,0.9s0.3,0.6,0.5,0.8s0.5,0.4,0.9,0.5c0.4,0.1,0.8,0.2,1.3,0.2
						L646.1,28.8L646.1,28.8z"/>
					<path class="st3" d="M655.4,28.1c0.3,0.2,0.7,0.4,1.2,0.5s1,0.2,1.6,0.2h0.1c0.3,0,0.5,0,0.6,0.1c0.1,0.1,0.2,0.2,0.2,0.5v0.8
						c0,0.1,0,0.2-0.1,0.3c0,0.1-0.1,0.1-0.2,0.2s-0.2,0.1-0.2,0.1c-0.1,0-0.2,0-0.3,0h-0.1c-0.8,0-1.4-0.1-1.9-0.3
						s-0.9-0.5-1.3-0.8c-0.2,0.3-0.4,0.5-0.7,0.7c-0.3,0.2-0.7,0.3-1.2,0.3h-2.6c-0.3,0-0.5,0-0.6-0.1c-0.1-0.1-0.2-0.2-0.2-0.5
						v-0.8c0-0.1,0-0.2,0.1-0.3c0-0.1,0.1-0.1,0.2-0.2s0.2-0.1,0.2-0.1c0.1,0,0.2,0,0.3,0h2.2c0.2,0,0.4-0.1,0.6-0.3
						s0.2-0.5,0.2-0.9v-5.3h2V28.1z M651.6,18.3c0-0.2,0-0.3,0.1-0.5c0.1-0.1,0.1-0.3,0.2-0.4c0.1-0.1,0.2-0.2,0.4-0.2
						s0.3-0.1,0.5-0.1s0.3,0,0.5,0.1c0.1,0.1,0.3,0.1,0.4,0.2c0.1,0.1,0.2,0.2,0.2,0.4s0.1,0.3,0.1,0.5s0,0.3-0.1,0.5
						c-0.1,0.1-0.2,0.3-0.2,0.4c-0.1,0.1-0.2,0.2-0.4,0.2s-0.3,0.1-0.5,0.1c-0.3,0-0.6-0.1-0.8-0.3
						C651.7,18.9,651.6,18.6,651.6,18.3z M654.7,18.3c0-0.2,0-0.3,0.1-0.5c0.1-0.1,0.1-0.3,0.2-0.4c0.1-0.1,0.2-0.2,0.4-0.2
						s0.3-0.1,0.5-0.1s0.3,0,0.5,0.1c0.1,0.1,0.3,0.1,0.4,0.2c0.1,0.1,0.2,0.2,0.2,0.4s0.1,0.3,0.1,0.5s0,0.3-0.1,0.5
						c-0.1,0.1-0.2,0.3-0.2,0.4c-0.1,0.1-0.2,0.2-0.4,0.2s-0.3,0.1-0.5,0.1c-0.3,0-0.6-0.1-0.8-0.3
						C654.8,18.9,654.7,18.6,654.7,18.3z"/>
					<path class="st3" d="M658.3,30.8c-0.3,0-0.5,0-0.6-0.1c-0.1-0.1-0.2-0.2-0.2-0.5v-0.8c0-0.1,0-0.2,0.1-0.3
						c0-0.1,0.1-0.1,0.2-0.2s0.2-0.1,0.2-0.1c0.1,0,0.2,0,0.3,0h3V14.9h2v15.8H658.3L658.3,30.8z"/>
					<path class="st3" d="M667,15h2v15.8h-2V15z"/>
					<path class="st3" d="M689.3,26.6c0-1.5,0.4-2.6,1.1-3.3s1.9-1.1,3.4-1.1h2.9v4.5c0,0.5,0,0.8,0.1,1.1c0,0.3,0.1,0.5,0.2,0.6
						s0.2,0.2,0.4,0.3c0.2,0,0.3,0.1,0.5,0.1h1.1c0.3,0,0.5,0,0.6,0.1c0.1,0.1,0.2,0.2,0.2,0.5v0.8c0,0.1,0,0.2-0.1,0.3
						c0,0.1-0.1,0.1-0.2,0.2s-0.2,0.1-0.2,0.1c-0.1,0-0.2,0-0.3,0h-1.4c-0.4,0-0.7-0.1-1-0.2c-0.3-0.1-0.6-0.3-0.9-0.5
						s-0.5-0.6-0.6-1c-0.2-0.4-0.2-0.9-0.2-1.5v-3.5h-0.4c-0.5,0-0.9,0-1.3,0.1s-0.7,0.2-1,0.4s-0.5,0.5-0.6,0.8s-0.2,0.8-0.2,1.4
						v3.2c0,0.7-0.2,1.4-0.5,2c-0.3,0.7-0.8,1.2-1.3,1.8c-0.6,0.5-1.3,0.9-2.1,1.2c-0.8,0.3-1.8,0.5-2.8,0.5c-1,0-1.9-0.1-2.6-0.3
						c-0.8-0.2-1.4-0.5-2-0.8s-1-0.7-1.3-1.1c-0.4-0.4-0.6-0.8-0.8-1.3s-0.4-0.9-0.4-1.3s-0.1-0.8-0.1-1.1c0-0.4,0-0.8,0.1-1.2
						s0.2-0.8,0.3-1.1c0.1-0.4,0.2-0.7,0.4-1s0.3-0.6,0.5-0.8l1.6,0.9c-0.1,0.2-0.3,0.4-0.4,0.7s-0.2,0.5-0.3,0.8
						c-0.1,0.3-0.2,0.5-0.2,0.8s-0.1,0.6-0.1,0.8c0,0.2,0,0.5,0.1,0.8c0.1,0.3,0.2,0.6,0.3,0.9c0.2,0.3,0.3,0.6,0.6,0.9
						c0.3,0.3,0.6,0.5,1,0.7s0.9,0.4,1.4,0.5c0.6,0.1,1.2,0.2,2,0.2s1.4-0.1,2-0.3c0.6-0.2,1.1-0.4,1.5-0.7s0.7-0.6,0.9-1
						c0.2-0.4,0.3-0.8,0.3-1.2L689.3,26.6L689.3,26.6L689.3,26.6z"/>
					<path class="st3" d="M710.5,30.8c-0.9,0-1.7,0-2.4-0.1c-0.7-0.1-1.4-0.1-2-0.3c-0.4,0.1-0.9,0.1-1.3,0.2c-0.5,0-1,0.1-1.5,0.1
						c-0.5,0-1,0-1.6,0.1s-1.1,0-1.6,0H699c-0.3,0-0.5,0-0.6-0.1c-0.1-0.1-0.2-0.2-0.2-0.5v-0.8c0-0.1,0-0.2,0.1-0.3
						c0-0.1,0.1-0.1,0.2-0.2s0.2-0.1,0.2-0.1c0.1,0,0.2,0,0.3,0h3.1v0c-0.2-0.2-0.4-0.4-0.5-0.6s-0.3-0.5-0.3-0.7
						c-0.1-0.2-0.2-0.5-0.2-0.7c0-0.2-0.1-0.4-0.1-0.6c0-0.6,0.1-1.1,0.3-1.7c0.2-0.5,0.5-1,0.9-1.4c0.4-0.4,0.9-0.7,1.5-0.9
						c0.6-0.2,1.2-0.4,2-0.4c0.6,0,1.2,0.1,1.7,0.3s0.9,0.5,1.2,0.8c0.3,0.4,0.6,0.8,0.8,1.2c0.2,0.5,0.2,1,0.2,1.5
						c0,0.3,0,0.6-0.1,0.9c0,0.3-0.1,0.6-0.2,0.8s-0.2,0.5-0.3,0.7s-0.2,0.4-0.2,0.6h2.8c0.3,0,0.5,0,0.6,0.1s0.2,0.2,0.2,0.5v0.8
						c0,0.1,0,0.2-0.1,0.3c0,0.1-0.1,0.1-0.2,0.2s-0.2,0.1-0.2,0.1c-0.1,0-0.2,0-0.3,0L710.5,30.8L710.5,30.8z M702.5,18.3
						c0-0.2,0-0.3,0.1-0.5c0.1-0.1,0.1-0.3,0.2-0.4c0.1-0.1,0.2-0.2,0.4-0.2s0.3-0.1,0.5-0.1s0.3,0,0.5,0.1c0.1,0.1,0.3,0.1,0.4,0.2
						c0.1,0.1,0.2,0.2,0.2,0.4s0.1,0.3,0.1,0.5s0,0.3-0.1,0.5c-0.1,0.1-0.2,0.3-0.2,0.4c-0.1,0.1-0.2,0.2-0.4,0.2s-0.3,0.1-0.5,0.1
						c-0.3,0-0.6-0.1-0.8-0.3C702.6,18.9,702.5,18.6,702.5,18.3z M702.8,25.9c0,0.4,0.1,0.8,0.2,1.2s0.4,0.6,0.7,0.9s0.6,0.4,1,0.6
						s0.8,0.2,1.3,0.2h0.7c0.1-0.1,0.2-0.3,0.3-0.5c0.1-0.2,0.2-0.4,0.3-0.6s0.2-0.5,0.2-0.8s0.1-0.5,0.1-0.8c0-0.4-0.1-0.8-0.2-1.1
						s-0.3-0.6-0.5-0.8c-0.2-0.2-0.5-0.4-0.7-0.5c-0.3-0.1-0.6-0.2-0.9-0.2s-0.6,0-0.9,0.1c-0.3,0.1-0.6,0.2-0.8,0.4
						c-0.2,0.2-0.4,0.4-0.6,0.7C702.9,25.2,702.8,25.5,702.8,25.9L702.8,25.9z M705.6,18.3c0-0.2,0-0.3,0.1-0.5
						c0.1-0.1,0.1-0.3,0.2-0.4c0.1-0.1,0.2-0.2,0.4-0.2s0.3-0.1,0.5-0.1s0.3,0,0.5,0.1c0.1,0.1,0.3,0.1,0.4,0.2
						c0.1,0.1,0.2,0.2,0.2,0.4s0.1,0.3,0.1,0.5s0,0.3-0.1,0.5c-0.1,0.1-0.2,0.3-0.2,0.4c-0.1,0.1-0.2,0.2-0.4,0.2s-0.3,0.1-0.5,0.1
						c-0.3,0-0.6-0.1-0.8-0.3C705.7,18.9,705.6,18.6,705.6,18.3z"/>
					<path class="st3" d="M716.6,28.1c0.3,0.2,0.7,0.4,1.2,0.5s1,0.2,1.6,0.2h0.1c0.3,0,0.5,0,0.6,0.1c0.1,0.1,0.2,0.2,0.2,0.5v0.8
						c0,0.1,0,0.2-0.1,0.3c0,0.1-0.1,0.1-0.2,0.2s-0.2,0.1-0.2,0.1c-0.1,0-0.2,0-0.3,0h-0.1c-0.8,0-1.4-0.1-1.9-0.3
						c-0.5-0.2-0.9-0.5-1.3-0.8c-0.2,0.3-0.4,0.5-0.7,0.7c-0.3,0.2-0.7,0.3-1.2,0.3h-2.6c-0.3,0-0.5,0-0.6-0.1
						c-0.1-0.1-0.2-0.2-0.2-0.5v-0.8c0-0.1,0-0.2,0.1-0.3c0-0.1,0.1-0.1,0.2-0.2s0.2-0.1,0.2-0.1c0.1,0,0.2,0,0.3,0h2.2
						c0.2,0,0.4-0.1,0.6-0.3s0.2-0.5,0.2-0.9v-5.3h2V28.1z M712.8,18.3c0-0.2,0-0.3,0.1-0.5c0.1-0.1,0.1-0.3,0.2-0.4
						c0.1-0.1,0.2-0.2,0.4-0.2s0.3-0.1,0.5-0.1s0.3,0,0.5,0.1c0.1,0.1,0.3,0.1,0.4,0.2c0.1,0.1,0.2,0.2,0.2,0.4s0.1,0.3,0.1,0.5
						s0,0.3-0.1,0.5c-0.1,0.1-0.2,0.3-0.2,0.4c-0.1,0.1-0.2,0.2-0.4,0.2s-0.3,0.1-0.5,0.1c-0.3,0-0.6-0.1-0.8-0.3
						C713,18.9,712.8,18.6,712.8,18.3z M716,18.3c0-0.2,0-0.3,0.1-0.5c0.1-0.1,0.1-0.3,0.2-0.4c0.1-0.1,0.2-0.2,0.4-0.2
						s0.3-0.1,0.5-0.1s0.3,0,0.5,0.1c0.1,0.1,0.3,0.1,0.4,0.2c0.1,0.1,0.2,0.2,0.2,0.4s0.1,0.3,0.1,0.5s0,0.3-0.1,0.5
						c-0.1,0.1-0.2,0.3-0.2,0.4c-0.1,0.1-0.2,0.2-0.4,0.2s-0.3,0.1-0.5,0.1c-0.3,0-0.6-0.1-0.8-0.3C716.1,18.9,716,18.6,716,18.3z"
						/>
					<path class="st3" d="M724.5,28.1c0.3,0.2,0.7,0.4,1.2,0.5c0.5,0.1,1,0.2,1.6,0.2h0.1c0.3,0,0.5,0,0.6,0.1
						c0.1,0.1,0.2,0.2,0.2,0.5v0.8c0,0.1,0,0.2-0.1,0.3c0,0.1-0.1,0.1-0.2,0.2s-0.2,0.1-0.2,0.1c-0.1,0-0.2,0-0.3,0h-0.1
						c-0.8,0-1.4-0.1-1.9-0.3s-0.9-0.5-1.3-0.8c-0.2,0.3-0.4,0.5-0.7,0.8s-0.7,0.3-1.2,0.3h-2.6c-0.3,0-0.5,0-0.6-0.1
						c-0.1-0.1-0.2-0.2-0.2-0.5v-0.8c0-0.1,0-0.2,0.1-0.3c0-0.1,0.1-0.1,0.2-0.2s0.2-0.1,0.2-0.1c0.1,0,0.2,0,0.3,0h2.2
						c0.2,0,0.4-0.1,0.6-0.3s0.2-0.5,0.2-0.9V14.9h2L724.5,28.1L724.5,28.1L724.5,28.1z"/>
					<path class="st3" d="M730.8,29.2c-0.2,0.3-0.3,0.5-0.5,0.7s-0.4,0.4-0.6,0.5s-0.4,0.2-0.7,0.2c-0.2,0-0.5,0.1-0.8,0.1h-0.9
						c-0.3,0-0.5,0-0.6-0.1c-0.1-0.1-0.2-0.2-0.2-0.5v-0.8c0-0.1,0-0.2,0.1-0.3c0-0.1,0.1-0.1,0.2-0.2s0.2-0.1,0.2-0.1
						c0.1,0,0.2,0,0.3,0h0.5c0.5,0,0.9-0.1,1.2-0.3s0.6-0.5,0.7-1c0.2-0.8,0.5-1.5,0.7-2c0.3-0.6,0.5-1,0.8-1.5
						c0.3-0.4,0.6-0.7,0.9-1s0.6-0.4,0.9-0.6c0.3-0.1,0.6-0.2,0.8-0.3s0.5-0.1,0.7-0.1c0.5,0,0.9,0.1,1.3,0.2s0.8,0.3,1.1,0.6
						s0.6,0.5,0.8,0.8c0.2,0.3,0.4,0.6,0.6,1c0.2,0.3,0.3,0.7,0.3,1c0.1,0.4,0.1,0.7,0.1,1c0,0.3,0,0.6-0.1,0.9s-0.2,0.6-0.3,0.9
						c-0.2,0.3-0.3,0.6-0.6,0.9s-0.5,0.5-0.8,0.7c-0.3,0.2-0.7,0.4-1.1,0.5c-0.4,0.1-0.9,0.2-1.3,0.2s-0.9,0-1.3-0.1
						c-0.4-0.1-0.8-0.2-1.1-0.4s-0.6-0.3-0.9-0.5C731.2,29.6,731,29.4,730.8,29.2z M737.3,27c0-0.3,0-0.6-0.2-0.9
						c-0.1-0.3-0.2-0.7-0.5-1s-0.5-0.6-0.8-0.8c-0.3-0.2-0.7-0.3-1.2-0.3s-0.8,0.1-1.2,0.3c-0.4,0.2-0.7,0.5-0.9,0.9
						s-0.5,0.8-0.7,1.3s-0.3,1-0.4,1.5c0.1,0.1,0.2,0.2,0.4,0.3s0.5,0.2,0.7,0.3c0.3,0.1,0.6,0.2,0.9,0.2s0.6,0.1,0.9,0.1
						c0.4,0,0.8,0,1.1-0.1s0.6-0.2,0.9-0.3c0.2-0.1,0.4-0.3,0.6-0.6C737.2,27.7,737.3,27.3,737.3,27z"/>
					<path class="st3" d="M523.6,55.9c0-1.5,0.4-2.6,1.1-3.3s1.9-1.1,3.4-1.1h2.9V56c0,0.5,0,0.8,0.1,1.1c0,0.3,0.1,0.5,0.2,0.6
						s0.2,0.2,0.4,0.3c0.2,0,0.3,0.1,0.5,0.1h1.1c0.3,0,0.5,0,0.6,0.1s0.2,0.2,0.2,0.5v0.8c0,0.1,0,0.2-0.1,0.3
						c0,0.1-0.1,0.2-0.2,0.2c-0.1,0-0.2,0.1-0.2,0.1c-0.1,0-0.2,0-0.3,0h-1.4c-0.4,0-0.7-0.1-1-0.2c-0.3-0.1-0.6-0.3-0.9-0.5
						s-0.5-0.6-0.6-1c-0.2-0.4-0.2-0.9-0.2-1.5v-3.5h-0.4c-0.5,0-0.9,0-1.3,0.1s-0.7,0.2-1,0.4c-0.3,0.2-0.5,0.5-0.6,0.8
						c-0.1,0.4-0.2,0.8-0.2,1.4v3.2c0,0.7-0.2,1.3-0.5,2c-0.3,0.7-0.8,1.2-1.3,1.8c-0.6,0.5-1.3,0.9-2.1,1.2
						c-0.8,0.3-1.8,0.5-2.8,0.5s-1.9-0.1-2.6-0.3c-0.8-0.2-1.4-0.5-2-0.8s-1-0.7-1.3-1.1c-0.4-0.4-0.6-0.8-0.8-1.3s-0.4-0.9-0.4-1.3
						s-0.1-0.8-0.1-1.1c0-0.4,0-0.8,0.1-1.2c0.1-0.4,0.1-0.8,0.3-1.1c0.1-0.4,0.2-0.7,0.4-1c0.2-0.3,0.3-0.6,0.5-0.8l1.6,0.9
						c-0.1,0.2-0.3,0.4-0.4,0.7s-0.2,0.5-0.3,0.8c-0.1,0.3-0.2,0.5-0.2,0.8s-0.1,0.6-0.1,0.8c0,0.2,0,0.5,0.1,0.8
						c0.1,0.3,0.2,0.6,0.3,0.9c0.2,0.3,0.3,0.6,0.6,0.8c0.3,0.3,0.6,0.5,1,0.7c0.4,0.2,0.9,0.4,1.4,0.5c0.6,0.1,1.2,0.2,2,0.2
						s1.4-0.1,2-0.3c0.6-0.2,1.1-0.4,1.5-0.7s0.7-0.6,0.9-1c0.2-0.4,0.3-0.8,0.3-1.2L523.6,55.9L523.6,55.9L523.6,55.9z M516.2,67.5
						c0-0.2,0-0.3,0.1-0.5c0.1-0.1,0.1-0.3,0.2-0.4c0.1-0.1,0.2-0.2,0.4-0.2s0.3-0.1,0.5-0.1c0.2,0,0.3,0,0.5,0.1
						c0.1,0.1,0.3,0.2,0.4,0.2c0.1,0.1,0.2,0.2,0.2,0.4s0.1,0.3,0.1,0.5s0,0.3-0.1,0.5c-0.1,0.1-0.2,0.3-0.2,0.4
						c-0.1,0.1-0.2,0.2-0.4,0.2s-0.3,0.1-0.5,0.1c-0.3,0-0.6-0.1-0.8-0.3C516.3,68.1,516.2,67.8,516.2,67.5z M519.3,67.5
						c0-0.2,0-0.3,0.1-0.5c0.1-0.1,0.1-0.3,0.2-0.4c0.1-0.1,0.2-0.2,0.4-0.2s0.3-0.1,0.5-0.1s0.3,0,0.5,0.1c0.1,0.1,0.3,0.2,0.4,0.2
						c0.1,0.1,0.2,0.2,0.2,0.4s0.1,0.3,0.1,0.5s0,0.3-0.1,0.5c-0.1,0.1-0.2,0.3-0.2,0.4c-0.1,0.1-0.2,0.2-0.4,0.2s-0.3,0.1-0.5,0.1
						c-0.3,0-0.6-0.1-0.8-0.3C519.4,68.1,519.3,67.8,519.3,67.5z"/>
					<path class="st3" d="M537.6,59.4c0,0.1,0,0.2-0.1,0.3c0,0.1-0.1,0.2-0.2,0.2c-0.1,0-0.2,0.1-0.2,0.1c-0.1,0-0.2,0-0.3,0h-3.5
						c-0.1,0-0.2,0-0.3,0c-0.1,0-0.2,0-0.2-0.1c-0.1,0-0.1-0.1-0.2-0.2s-0.1-0.2-0.1-0.3v-0.8c0-0.2,0.1-0.4,0.2-0.5
						s0.3-0.1,0.6-0.1h3.5c0.3,0,0.5,0,0.6,0.1s0.2,0.2,0.2,0.5L537.6,59.4L537.6,59.4L537.6,59.4z"/>
					<path class="st3" d="M536.8,60c-0.3,0-0.5,0-0.6-0.1s-0.2-0.2-0.2-0.5v-0.8c0-0.1,0-0.2,0.1-0.3c0-0.1,0.1-0.2,0.2-0.2
						c0.1,0,0.2-0.1,0.2-0.1c0.1,0,0.2,0,0.3,0h3.6v-6.5h2V60L536.8,60L536.8,60z M540.3,47.5c0-0.2,0-0.3,0.1-0.5
						c0.1-0.1,0.1-0.3,0.2-0.4c0.1-0.1,0.2-0.2,0.4-0.2s0.3-0.1,0.5-0.1s0.3,0,0.5,0.1c0.1,0.1,0.3,0.2,0.4,0.2
						c0.1,0.1,0.2,0.2,0.2,0.4s0.1,0.3,0.1,0.5s0,0.3-0.1,0.5c-0.1,0.1-0.2,0.3-0.2,0.4c-0.1,0.1-0.2,0.2-0.4,0.2s-0.3,0.1-0.5,0.1
						c-0.3,0-0.6-0.1-0.8-0.3C540.5,48.1,540.3,47.9,540.3,47.5z"/>
					<path class="st3" d="M552.9,59.6c-0.2,0.1-0.4,0.2-0.6,0.2c-0.2,0.1-0.4,0.1-0.6,0.1c-0.2,0-0.4,0.1-0.6,0.1
						c-0.2,0-0.3,0-0.5,0c-0.8,0-1.5-0.1-2.1-0.4s-1-0.6-1.4-1c-0.4-0.4-0.6-0.9-0.8-1.4c-0.2-0.5-0.2-1-0.2-1.5
						c0-0.6,0.1-1.2,0.3-1.8c0.2-0.6,0.5-1,1-1.5c0.4-0.4,0.9-0.7,1.5-1c0.6-0.2,1.2-0.3,2-0.3c0.3,0,0.6,0,0.9,0.1
						c0.3,0.1,0.6,0.2,0.9,0.3s0.6,0.3,0.9,0.6c0.3,0.2,0.5,0.5,0.7,0.9s0.4,0.8,0.5,1.3s0.2,1.1,0.2,1.8V58c0,1.2-0.2,2.2-0.5,3
						s-0.9,1.5-1.5,2s-1.4,0.9-2.3,1.2c-0.9,0.3-1.8,0.4-2.9,0.6l-0.2-1.9c0.8-0.1,1.5-0.2,2.2-0.3c0.6-0.2,1.2-0.4,1.6-0.7
						s0.8-0.6,1.1-1C552.6,60.4,552.8,60,552.9,59.6z M551,58.1c0.2,0,0.4,0,0.6,0s0.4,0,0.5-0.1c0.2,0,0.3-0.1,0.5-0.1
						s0.2-0.1,0.3-0.1v-1c0-0.8-0.1-1.4-0.2-1.9c-0.1-0.5-0.3-0.9-0.6-1.2s-0.5-0.5-0.8-0.6c-0.3-0.1-0.6-0.2-0.9-0.2
						c-0.3,0-0.7,0.1-1,0.2c-0.3,0.1-0.5,0.3-0.8,0.5c-0.2,0.2-0.4,0.5-0.5,0.8s-0.2,0.7-0.2,1c0,0.3,0,0.6,0.2,0.9
						c0.1,0.3,0.3,0.6,0.5,0.8s0.5,0.4,0.9,0.5C550,58,550.4,58.1,551,58.1L551,58.1z"/>
					<path class="st3" d="M556.3,62.7c0.8-0.1,1.4-0.3,1.9-0.5c0.5-0.2,0.8-0.5,1.1-0.8c0.2-0.3,0.4-0.7,0.5-1.2
						c0.1-0.4,0.1-0.9,0.1-1.5v-7.3h2V58h2.6c0.3,0,0.5,0,0.6,0.1s0.2,0.2,0.2,0.5v0.8c0,0.1,0,0.2-0.1,0.3c0,0.1-0.1,0.2-0.2,0.2
						c-0.1,0-0.2,0.1-0.2,0.1c-0.1,0-0.2,0-0.3,0h-2.7c-0.1,0.8-0.3,1.4-0.6,2s-0.6,1-1,1.3c-0.4,0.4-0.9,0.6-1.5,0.8
						c-0.6,0.2-1.3,0.4-2.1,0.5L556.3,62.7z"/>
					<path class="st3" d="M568.7,59.4c0,0.1,0,0.2-0.1,0.3c0,0.1-0.1,0.2-0.2,0.2c-0.1,0-0.2,0.1-0.2,0.1c-0.1,0-0.2,0-0.3,0h-3.5
						c-0.1,0-0.2,0-0.3,0c-0.1,0-0.2,0-0.2-0.1c-0.1,0-0.1-0.1-0.2-0.2s-0.1-0.2-0.1-0.3v-0.8c0-0.2,0.1-0.4,0.2-0.5
						s0.3-0.1,0.6-0.1h3.5c0.3,0,0.5,0,0.6,0.1s0.2,0.2,0.2,0.5L568.7,59.4L568.7,59.4L568.7,59.4z"/>
					<path class="st3" d="M572.8,57.3c0.3,0.2,0.7,0.4,1.2,0.5s1,0.2,1.6,0.2h0.1c0.3,0,0.5,0,0.6,0.1s0.2,0.2,0.2,0.5v0.8
						c0,0.1,0,0.2-0.1,0.3c0,0.1-0.1,0.2-0.2,0.2c-0.1,0-0.2,0.1-0.2,0.1c-0.1,0-0.2,0-0.3,0h-0.1c-0.8,0-1.4-0.1-1.9-0.3
						c-0.5-0.2-0.9-0.5-1.3-0.8c-0.2,0.3-0.4,0.5-0.7,0.7c-0.3,0.2-0.7,0.3-1.2,0.3h-2.6c-0.3,0-0.5,0-0.6-0.1s-0.2-0.2-0.2-0.5
						v-0.8c0-0.1,0-0.2,0.1-0.3c0-0.1,0.1-0.2,0.2-0.2c0.1,0,0.2-0.1,0.2-0.1c0.1,0,0.2,0,0.3,0h2.2c0.2,0,0.4-0.1,0.6-0.3
						c0.1-0.2,0.2-0.5,0.2-0.9v-5.3h2C572.8,51.5,572.8,57.3,572.8,57.3z M569.1,47.5c0-0.2,0-0.3,0.1-0.5c0.1-0.1,0.1-0.3,0.2-0.4
						c0.1-0.1,0.2-0.2,0.4-0.2s0.3-0.1,0.5-0.1s0.3,0,0.5,0.1c0.1,0.1,0.3,0.2,0.4,0.2c0.1,0.1,0.2,0.2,0.2,0.4s0.1,0.3,0.1,0.5
						s0,0.3-0.1,0.5c-0.1,0.1-0.2,0.3-0.2,0.4c-0.1,0.1-0.2,0.2-0.4,0.2s-0.3,0.1-0.5,0.1c-0.3,0-0.6-0.1-0.8-0.3
						C569.2,48.1,569.1,47.9,569.1,47.5z M572.2,47.5c0-0.2,0-0.3,0.1-0.5c0.1-0.1,0.1-0.3,0.2-0.4c0.1-0.1,0.2-0.2,0.4-0.2
						s0.3-0.1,0.5-0.1s0.3,0,0.5,0.1c0.1,0.1,0.3,0.2,0.4,0.2c0.1,0.1,0.2,0.2,0.2,0.4s0.1,0.3,0.1,0.5s0,0.3-0.1,0.5
						c-0.1,0.1-0.2,0.3-0.2,0.4c-0.1,0.1-0.2,0.2-0.4,0.2s-0.3,0.1-0.5,0.1c-0.3,0-0.6-0.1-0.8-0.3
						C572.3,48.1,572.2,47.9,572.2,47.5z"/>
					<path class="st3" d="M580,59.4c0,0.1,0,0.2-0.1,0.3c0,0.1-0.1,0.2-0.2,0.2c-0.1,0-0.2,0.1-0.2,0.1c-0.1,0-0.2,0-0.3,0h-3.5
						c-0.1,0-0.2,0-0.3,0c-0.1,0-0.2,0-0.2-0.1c-0.1,0-0.1-0.1-0.2-0.2s-0.1-0.2-0.1-0.3v-0.8c0-0.2,0.1-0.4,0.2-0.5
						s0.3-0.1,0.6-0.1h3.5c0.3,0,0.5,0,0.6,0.1s0.2,0.2,0.2,0.5L580,59.4L580,59.4L580,59.4z"/>
					<path class="st3" d="M579.2,60c-0.3,0-0.5,0-0.6-0.1s-0.2-0.2-0.2-0.5v-0.8c0-0.1,0-0.2,0.1-0.3c0-0.1,0.1-0.2,0.2-0.2
						c0.1,0,0.2-0.1,0.2-0.1c0.1,0,0.2,0,0.3,0h3.3c0.5,0,1,0,1.3-0.1s0.6-0.2,0.8-0.3c0.2-0.1,0.3-0.3,0.4-0.4
						c0.1-0.2,0.1-0.4,0.1-0.6c0-0.4-0.1-0.7-0.3-1.1c-0.2-0.4-0.5-0.7-0.8-1.1c-0.4-0.4-0.8-0.7-1.3-1.1c-0.5-0.3-1.1-0.7-1.7-1
						l4.4-7.5l1.4,1l-3.4,5.9c0.5,0.3,1,0.6,1.4,1c0.4,0.3,0.8,0.7,1.1,1.1c0.3,0.4,0.5,0.8,0.7,1.3c0.2,0.4,0.2,0.9,0.2,1.4
						c0,0.3,0,0.6-0.1,0.8c0.3,0.2,0.7,0.4,1.2,0.5c0.5,0.1,1,0.2,1.6,0.2h0.1c0.3,0,0.5,0,0.6,0.1s0.2,0.2,0.2,0.5v0.8
						c0,0.1,0,0.2-0.1,0.3c0,0.1-0.1,0.2-0.2,0.2c-0.1,0-0.2,0.1-0.2,0.1c-0.1,0-0.2,0-0.3,0h-0.1c-0.4,0-0.8,0-1.2-0.1
						s-0.7-0.2-0.9-0.3c-0.3-0.1-0.5-0.2-0.7-0.4s-0.4-0.3-0.6-0.5c-0.3,0.4-0.8,0.7-1.3,0.9s-1.3,0.3-2.1,0.3L579.2,60L579.2,60z"
						/>
					<path class="st3" d="M589.7,60c-0.3,0-0.5,0-0.6-0.1s-0.2-0.2-0.2-0.5v-0.8c0-0.1,0-0.2,0.1-0.3c0-0.1,0.1-0.2,0.2-0.2
						c0.1,0,0.2-0.1,0.2-0.1c0.1,0,0.2,0,0.3,0h3V44.2h2V60H589.7L589.7,60z"/>
					<path class="st3" d="M610.7,44.2V60h-12.5v-2h4.9v-9.6h2V58h3.7V44.2H610.7z"/>
					<path class="st3" d="M614.4,44.2h2V60h-2V44.2z"/>
					<path class="st3" d="M629.5,58.7c-0.3,0-0.7,0.1-1,0.2c-0.3,0.1-0.7,0.3-0.9,0.5s-0.5,0.6-0.7,1c-0.2,0.4-0.3,0.9-0.3,1.5
						c0,0.4,0,0.8,0.1,1.2s0.1,0.9,0.2,1.4s0.2,1,0.4,1.5c0.2,0.5,0.3,1.1,0.6,1.6l-1.8,0.6c-0.2-0.5-0.3-1-0.5-1.6
						c-0.2-0.6-0.3-1.2-0.4-1.7c-0.1-0.6-0.2-1.1-0.3-1.6c-0.1-0.5-0.1-1-0.1-1.3c0-0.6,0.1-1.2,0.2-1.6s0.3-0.9,0.5-1.2
						s0.5-0.7,0.7-0.9c0.3-0.2,0.5-0.5,0.8-0.7s0.5-0.3,0.8-0.5c0.3-0.1,0.5-0.3,0.7-0.4c0.2-0.8,0.5-1.5,0.7-2
						c0.3-0.6,0.5-1,0.8-1.5c0.3-0.4,0.6-0.7,0.9-1s0.6-0.4,0.9-0.6c0.3-0.1,0.6-0.2,0.8-0.3s0.5-0.1,0.7-0.1c0.5,0,0.9,0.1,1.3,0.2
						s0.8,0.3,1.1,0.6s0.6,0.5,0.8,0.8c0.2,0.3,0.4,0.6,0.6,1c0.2,0.3,0.3,0.7,0.3,1c0.1,0.3,0.1,0.7,0.1,1c0,0.5-0.1,0.9-0.3,1.4
						c0.3,0.2,0.7,0.4,1.2,0.5s1,0.2,1.5,0.2h0.1c0.3,0,0.5,0,0.6,0.1s0.2,0.2,0.2,0.5v0.8c0,0.1,0,0.2-0.1,0.3
						c0,0.1-0.1,0.2-0.2,0.2c-0.1,0-0.2,0.1-0.2,0.1c-0.1,0-0.2,0-0.3,0H640c-0.4,0-0.8,0-1.2-0.1s-0.7-0.2-0.9-0.3
						s-0.5-0.2-0.8-0.4s-0.4-0.3-0.6-0.5c-0.3,0.4-0.8,0.7-1.3,1s-1.2,0.4-1.9,0.4c-0.4,0-0.8,0-1.2-0.1s-0.7-0.2-1-0.3
						c-0.3-0.1-0.6-0.3-0.9-0.5C629.9,59,629.7,58.9,629.5,58.7L629.5,58.7z M635.8,56.2c0-0.3,0-0.6-0.2-0.9
						c-0.1-0.3-0.2-0.7-0.5-1s-0.5-0.6-0.8-0.8s-0.7-0.3-1.2-0.3s-0.8,0.1-1.2,0.3c-0.4,0.2-0.7,0.5-0.9,0.9s-0.5,0.8-0.7,1.3
						s-0.3,1-0.4,1.5c0.1,0.1,0.2,0.2,0.4,0.3s0.5,0.2,0.7,0.3c0.3,0.1,0.6,0.2,0.9,0.2s0.6,0.1,0.9,0.1c0.4,0,0.8,0,1.1-0.1
						s0.6-0.2,0.9-0.3s0.4-0.3,0.6-0.6C635.7,56.9,635.8,56.6,635.8,56.2z"/>
					<path class="st3" d="M644.4,59.4c0,0.1,0,0.2-0.1,0.3c0,0.1-0.1,0.2-0.2,0.2c-0.1,0-0.2,0.1-0.2,0.1c-0.1,0-0.2,0-0.3,0h-3.5
						c-0.1,0-0.2,0-0.3,0c-0.1,0-0.2,0-0.2-0.1c-0.1,0-0.1-0.1-0.2-0.2s-0.1-0.2-0.1-0.3v-0.8c0-0.2,0.1-0.4,0.2-0.5
						s0.3-0.1,0.6-0.1h3.5c0.3,0,0.5,0,0.6,0.1s0.2,0.2,0.2,0.5L644.4,59.4L644.4,59.4L644.4,59.4z"/>
					<path class="st3" d="M648.5,57.3c0.3,0.2,0.7,0.4,1.2,0.5s1,0.2,1.6,0.2h0.1c0.3,0,0.5,0,0.6,0.1s0.2,0.2,0.2,0.5v0.8
						c0,0.1,0,0.2-0.1,0.3c0,0.1-0.1,0.2-0.2,0.2c-0.1,0-0.2,0.1-0.2,0.1c-0.1,0-0.2,0-0.3,0h-0.1c-0.8,0-1.4-0.1-1.9-0.3
						c-0.5-0.2-0.9-0.5-1.3-0.8c-0.2,0.3-0.4,0.5-0.7,0.7c-0.3,0.2-0.7,0.3-1.2,0.3h-2.6c-0.3,0-0.5,0-0.6-0.1s-0.2-0.2-0.2-0.5
						v-0.8c0-0.1,0-0.2,0.1-0.3c0-0.1,0.1-0.2,0.2-0.2c0.1,0,0.2-0.1,0.2-0.1c0.1,0,0.2,0,0.3,0h2.2c0.2,0,0.4-0.1,0.6-0.3
						c0.1-0.2,0.2-0.5,0.2-0.9v-5.3h2C648.5,51.5,648.5,57.3,648.5,57.3z M644.7,63.3c0-0.2,0-0.3,0.1-0.5c0.1-0.1,0.1-0.3,0.2-0.4
						c0.1-0.1,0.2-0.2,0.4-0.2s0.3-0.1,0.5-0.1s0.3,0,0.5,0.1c0.1,0.1,0.3,0.2,0.4,0.2c0.1,0.1,0.2,0.2,0.2,0.4s0.1,0.3,0.1,0.5
						s0,0.3-0.1,0.5c-0.1,0.1-0.2,0.3-0.2,0.4s-0.2,0.2-0.4,0.2s-0.3,0.1-0.5,0.1c-0.3,0-0.6-0.1-0.8-0.3
						C644.8,63.9,644.7,63.6,644.7,63.3z M647.8,63.3c0-0.2,0-0.3,0.1-0.5c0.1-0.1,0.1-0.3,0.2-0.4c0.1-0.1,0.2-0.2,0.4-0.2
						s0.3-0.1,0.5-0.1s0.3,0,0.5,0.1c0.1,0.1,0.3,0.2,0.4,0.2c0.1,0.1,0.2,0.2,0.2,0.4s0.1,0.3,0.1,0.5s0,0.3-0.1,0.5
						c-0.1,0.1-0.2,0.3-0.2,0.4c-0.1,0.1-0.2,0.2-0.4,0.2s-0.3,0.1-0.5,0.1c-0.3,0-0.6-0.1-0.8-0.3C648,63.9,647.8,63.6,647.8,63.3z
						"/>
					<path class="st3" d="M655.7,59.4c0,0.1,0,0.2-0.1,0.3c0,0.1-0.1,0.2-0.2,0.2c-0.1,0-0.2,0.1-0.2,0.1c-0.1,0-0.2,0-0.3,0h-3.5
						c-0.1,0-0.2,0-0.3,0c-0.1,0-0.2,0-0.2-0.1c-0.1,0-0.1-0.1-0.2-0.2s-0.1-0.2-0.1-0.3v-0.8c0-0.2,0.1-0.4,0.2-0.5
						s0.3-0.1,0.6-0.1h3.5c0.3,0,0.5,0,0.6,0.1s0.2,0.2,0.2,0.5L655.7,59.4L655.7,59.4L655.7,59.4z"/>
					<path class="st3" d="M659.9,57.3c0.3,0.2,0.7,0.4,1.2,0.5c0.5,0.1,1,0.2,1.6,0.2h0.1c0.3,0,0.5,0,0.6,0.1s0.2,0.2,0.2,0.5v0.8
						c0,0.1,0,0.2-0.1,0.3c0,0.1-0.1,0.2-0.2,0.2c-0.1,0-0.2,0.1-0.2,0.1c-0.1,0-0.2,0-0.3,0h-0.1c-0.8,0-1.4-0.1-1.9-0.3
						s-0.9-0.5-1.3-0.8c-0.2,0.3-0.4,0.5-0.7,0.8S658,60,657.6,60h-2.6c-0.3,0-0.5,0-0.6-0.1s-0.2-0.2-0.2-0.5v-0.8
						c0-0.1,0-0.2,0.1-0.3c0-0.1,0.1-0.2,0.2-0.2c0.1,0,0.2-0.1,0.2-0.1c0.1,0,0.2,0,0.3,0h2.2c0.2,0,0.4-0.1,0.6-0.3
						c0.1-0.2,0.2-0.5,0.2-0.9V44.2h2L659.9,57.3L659.9,57.3L659.9,57.3z"/>
					<path class="st3" d="M667.5,57.5c-0.3-0.2-0.6-0.5-0.9-0.9c-0.3-0.3-0.6-0.7-0.8-1c-0.3-0.3-0.5-0.7-0.7-1
						c-0.2-0.3-0.4-0.5-0.5-0.7c0-0.2,0.1-0.3,0.1-0.5s0.1-0.4,0.2-0.6c0.1-0.2,0.1-0.3,0.2-0.5c0.1-0.1,0.2-0.2,0.2-0.3
						c0.2-0.1,0.5-0.3,0.8-0.4c0.3-0.1,0.7-0.3,1.1-0.4s0.8-0.2,1.3-0.3s1-0.1,1.5-0.1c0.4,0,0.8,0,1.2,0.1s0.8,0.2,1.1,0.3
						c0.3,0.2,0.6,0.3,0.8,0.6s0.3,0.5,0.3,0.8c0,0.2,0,0.5-0.1,0.8s-0.2,0.7-0.3,1.1c-0.2,0.4-0.4,0.8-0.8,1.3
						c-0.3,0.5-0.8,1-1.3,1.5c0.2,0.1,0.4,0.2,0.6,0.2c0.2,0.1,0.5,0.1,0.8,0.2c0.3,0,0.6,0.1,1,0.1c0.3,0,0.7,0,1.1,0h0.9
						c0.3,0,0.5,0,0.6,0.1s0.2,0.2,0.2,0.5v0.8c0,0.1,0,0.2-0.1,0.3c0,0.1-0.1,0.2-0.2,0.2c-0.1,0-0.2,0.1-0.2,0.1
						c-0.1,0-0.2,0-0.3,0h-1.5c-0.6,0-1.2,0-1.7-0.1c-0.5-0.1-1-0.2-1.4-0.3c-0.4-0.1-0.8-0.3-1.1-0.4s-0.5-0.3-0.7-0.4
						c-0.3,0.2-0.6,0.3-1,0.5s-0.7,0.3-1.1,0.4s-0.8,0.2-1.3,0.3s-0.9,0.1-1.4,0.1h-1.4c-0.3,0-0.5,0-0.6-0.1s-0.2-0.2-0.2-0.5v-0.8
						c0-0.1,0-0.2,0.1-0.3c0-0.1,0.1-0.2,0.2-0.2c0.1,0,0.2-0.1,0.2-0.1c0.1,0,0.2,0,0.3,0h1.5c0.4,0,0.8,0,1.1,0s0.7-0.1,0.9-0.1
						c0.3,0,0.5-0.1,0.7-0.2C667.3,57.6,667.4,57.6,667.5,57.5L667.5,57.5z M671.5,53.9c0-0.2,0-0.3-0.2-0.5
						c-0.1-0.2-0.2-0.3-0.5-0.4s-0.4-0.2-0.7-0.3s-0.6-0.1-1-0.1c-0.4,0-0.9,0-1.3,0.2s-1,0.3-1.6,0.5c0.1,0.2,0.2,0.4,0.5,0.7
						s0.5,0.6,0.7,0.9c0.3,0.3,0.6,0.6,0.9,0.9c0.3,0.3,0.6,0.5,0.9,0.7c0.3-0.2,0.7-0.4,0.9-0.7c0.3-0.3,0.5-0.5,0.7-0.8
						s0.3-0.5,0.5-0.7C671.4,54.2,671.5,54,671.5,53.9L671.5,53.9z"/>
					<path class="st3" d="M680.3,57.3c0.3,0.2,0.7,0.4,1.2,0.5s1,0.2,1.6,0.2h0.1c0.3,0,0.5,0,0.6,0.1s0.2,0.2,0.2,0.5v0.8
						c0,0.1,0,0.2-0.1,0.3c0,0.1-0.1,0.2-0.2,0.2c-0.1,0-0.2,0.1-0.2,0.1c-0.1,0-0.2,0-0.3,0h-0.1c-0.8,0-1.4-0.1-1.9-0.3
						c-0.5-0.2-0.9-0.5-1.3-0.8c-0.2,0.3-0.4,0.5-0.7,0.7c-0.3,0.2-0.7,0.3-1.2,0.3h-2.6c-0.3,0-0.5,0-0.6-0.1s-0.2-0.2-0.2-0.5
						v-0.8c0-0.1,0-0.2,0.1-0.3c0-0.1,0.1-0.2,0.2-0.2c0.1,0,0.2-0.1,0.2-0.1c0.1,0,0.2,0,0.3,0h2.2c0.2,0,0.4-0.1,0.6-0.3
						c0.1-0.2,0.2-0.5,0.2-0.9v-5.3h2C680.3,51.5,680.3,57.3,680.3,57.3z M676.5,47.5c0-0.2,0-0.3,0.1-0.5c0.1-0.1,0.1-0.3,0.2-0.4
						c0.1-0.1,0.2-0.2,0.4-0.2s0.3-0.1,0.5-0.1s0.3,0,0.5,0.1c0.1,0.1,0.3,0.2,0.4,0.2c0.1,0.1,0.2,0.2,0.2,0.4s0.1,0.3,0.1,0.5
						s0,0.3-0.1,0.5c-0.1,0.1-0.2,0.3-0.2,0.4c-0.1,0.1-0.2,0.2-0.4,0.2s-0.3,0.1-0.5,0.1c-0.3,0-0.6-0.1-0.8-0.3
						C676.6,48.1,676.5,47.9,676.5,47.5z M679.7,47.5c0-0.2,0-0.3,0.1-0.5c0.1-0.1,0.1-0.3,0.2-0.4c0.1-0.1,0.2-0.2,0.4-0.2
						s0.3-0.1,0.5-0.1s0.3,0,0.5,0.1c0.1,0.1,0.3,0.2,0.4,0.2c0.1,0.1,0.2,0.2,0.2,0.4s0.1,0.3,0.1,0.5s0,0.3-0.1,0.5
						c-0.1,0.1-0.2,0.3-0.2,0.4c-0.1,0.1-0.2,0.2-0.4,0.2s-0.3,0.1-0.5,0.1c-0.3,0-0.6-0.1-0.8-0.3
						C679.8,48.1,679.7,47.9,679.7,47.5z"/>
					<path class="st3" d="M683.2,60c-0.3,0-0.5,0-0.6-0.1s-0.2-0.2-0.2-0.5v-0.8c0-0.1,0-0.2,0.1-0.3c0-0.1,0.1-0.2,0.2-0.2
						c0.1,0,0.2-0.1,0.2-0.1c0.1,0,0.2,0,0.3,0h3V44.2h2V60H683.2L683.2,60z"/>
					<path class="st3" d="M691.9,44.2h2V60h-2V44.2z"/>
					<path class="st3" d="M714.2,55.9c0-1.5,0.4-2.6,1.1-3.3s1.9-1.1,3.4-1.1h2.9V56c0,0.5,0,0.8,0.1,1.1c0,0.3,0.1,0.5,0.2,0.6
						s0.2,0.2,0.4,0.3c0.2,0,0.3,0.1,0.5,0.1h1.1c0.3,0,0.5,0,0.6,0.1s0.2,0.2,0.2,0.5v0.8c0,0.1,0,0.2-0.1,0.3
						c0,0.1-0.1,0.2-0.2,0.2c-0.1,0-0.2,0.1-0.2,0.1c-0.1,0-0.2,0-0.3,0h-1.4c-0.4,0-0.7-0.1-1-0.2c-0.3-0.1-0.6-0.3-0.9-0.5
						s-0.5-0.6-0.6-1c-0.2-0.4-0.2-0.9-0.2-1.5v-3.5h-0.4c-0.5,0-0.9,0-1.3,0.1s-0.7,0.2-1,0.4c-0.3,0.2-0.5,0.5-0.6,0.8
						c-0.1,0.4-0.2,0.8-0.2,1.4v3.2c0,0.7-0.2,1.3-0.5,2c-0.3,0.7-0.8,1.2-1.3,1.8c-0.6,0.5-1.3,0.9-2.1,1.2
						c-0.8,0.3-1.8,0.5-2.8,0.5s-1.9-0.1-2.6-0.3c-0.8-0.2-1.4-0.5-2-0.8s-1-0.7-1.3-1.1c-0.4-0.4-0.6-0.8-0.8-1.3s-0.4-0.9-0.4-1.3
						s-0.1-0.8-0.1-1.1c0-0.4,0-0.8,0.1-1.2c0.1-0.4,0.2-0.8,0.3-1.1c0.1-0.4,0.2-0.7,0.4-1c0.2-0.3,0.3-0.6,0.5-0.8l1.6,0.9
						c-0.1,0.2-0.3,0.4-0.4,0.7s-0.2,0.5-0.3,0.8c-0.1,0.3-0.2,0.5-0.2,0.8s-0.1,0.6-0.1,0.8c0,0.2,0,0.5,0.1,0.8
						c0.1,0.3,0.2,0.6,0.3,0.9c0.2,0.3,0.3,0.6,0.6,0.8c0.3,0.3,0.6,0.5,1,0.7c0.4,0.2,0.9,0.4,1.4,0.5c0.6,0.1,1.2,0.2,2,0.2
						s1.4-0.1,2-0.3c0.6-0.2,1.1-0.4,1.5-0.7s0.7-0.6,0.9-1c0.2-0.4,0.3-0.8,0.3-1.2L714.2,55.9L714.2,55.9L714.2,55.9z M706.8,67.5
						c0-0.2,0-0.3,0.1-0.5c0.1-0.1,0.1-0.3,0.2-0.4c0.1-0.1,0.2-0.2,0.4-0.2s0.3-0.1,0.5-0.1c0.2,0,0.3,0,0.5,0.1
						c0.1,0.1,0.3,0.2,0.4,0.2c0.1,0.1,0.2,0.2,0.2,0.4s0.1,0.3,0.1,0.5s0,0.3-0.1,0.5c-0.1,0.1-0.2,0.3-0.2,0.4
						c-0.1,0.1-0.2,0.2-0.4,0.2s-0.3,0.1-0.5,0.1c-0.3,0-0.6-0.1-0.8-0.3C706.9,68.1,706.8,67.8,706.8,67.5z M709.9,67.5
						c0-0.2,0-0.3,0.1-0.5c0.1-0.1,0.1-0.3,0.2-0.4c0.1-0.1,0.2-0.2,0.4-0.2s0.3-0.1,0.5-0.1s0.3,0,0.5,0.1c0.1,0.1,0.3,0.2,0.4,0.2
						c0.1,0.1,0.2,0.2,0.2,0.4s0.1,0.3,0.1,0.5s0,0.3-0.1,0.5c-0.1,0.1-0.2,0.3-0.2,0.4c-0.1,0.1-0.2,0.2-0.4,0.2s-0.3,0.1-0.5,0.1
						c-0.3,0-0.6-0.1-0.8-0.3C710.1,68.1,709.9,67.8,709.9,67.5z"/>
					<path class="st3" d="M728.2,59.4c0,0.1,0,0.2-0.1,0.3c0,0.1-0.1,0.2-0.2,0.2c-0.1,0-0.2,0.1-0.2,0.1c-0.1,0-0.2,0-0.3,0h-3.5
						c-0.1,0-0.2,0-0.3,0c-0.1,0-0.2,0-0.2-0.1c-0.1,0-0.1-0.1-0.2-0.2s-0.1-0.2-0.1-0.3v-0.8c0-0.2,0.1-0.4,0.2-0.5
						s0.3-0.1,0.6-0.1h3.5c0.3,0,0.5,0,0.6,0.1s0.2,0.2,0.2,0.5L728.2,59.4L728.2,59.4L728.2,59.4z"/>
					<path class="st3" d="M730.3,55.6c0-0.6,0.1-1.2,0.3-1.8c0.2-0.5,0.5-1,0.9-1.4s0.9-0.7,1.4-1s1.2-0.3,1.8-0.3s1.2,0.1,1.7,0.3
						s0.9,0.5,1.3,0.9c0.3,0.4,0.6,0.8,0.8,1.4s0.3,1.2,0.3,1.9V60h-11.4c-0.3,0-0.5,0-0.6-0.1s-0.2-0.2-0.2-0.5v-0.8
						c0-0.1,0-0.2,0.1-0.3c0-0.1,0.1-0.2,0.2-0.2c0.1,0,0.2-0.1,0.2-0.1c0.1,0,0.2,0,0.3,0h3.5v-0.1c-0.1-0.1-0.2-0.2-0.3-0.4
						c-0.1-0.2-0.2-0.3-0.2-0.6c-0.1-0.2-0.1-0.4-0.2-0.7C730.3,56.1,730.3,55.8,730.3,55.6L730.3,55.6z M736.9,58V56
						c0-0.6-0.1-1-0.2-1.4s-0.3-0.7-0.5-0.9c-0.2-0.2-0.5-0.4-0.8-0.5c-0.3-0.1-0.6-0.1-0.9-0.1c-0.3,0-0.7,0.1-1,0.2
						c-0.3,0.1-0.5,0.3-0.8,0.5c-0.2,0.2-0.4,0.5-0.5,0.8s-0.2,0.7-0.2,1s0.1,0.7,0.2,1c0.1,0.3,0.3,0.6,0.6,0.8s0.5,0.4,0.9,0.5
						s0.8,0.2,1.2,0.2L736.9,58L736.9,58L736.9,58z M733.6,47.5c0-0.2,0-0.3,0.1-0.5s0.1-0.3,0.2-0.4c0.1-0.1,0.2-0.2,0.4-0.2
						s0.3-0.1,0.5-0.1c0.2,0,0.3,0,0.5,0.1c0.1,0.1,0.3,0.2,0.4,0.2c0.1,0.1,0.2,0.2,0.2,0.4s0.1,0.3,0.1,0.5s0,0.3-0.1,0.5
						c-0.1,0.1-0.2,0.3-0.2,0.4c-0.1,0.1-0.2,0.2-0.4,0.2s-0.3,0.1-0.5,0.1c-0.3,0-0.6-0.1-0.8-0.3
						C733.7,48.1,733.6,47.9,733.6,47.5z"/>
				</g>
			</g>
		</g>
		<g>
			
				<linearGradient id="SVGID_00000010290824461917382420000005535817503183658167_" gradientUnits="userSpaceOnUse" x1="460.8851" y1="178.6765" x2="63.8851" y2="81.6765">
				<stop  offset="0" style="stop-color:#6921A3"/>
				<stop  offset="1" style="stop-color:#00CFC9"/>
			</linearGradient>
			<path style="fill:url(#SVGID_00000010290824461917382420000005535817503183658167_);" d="M158.8,68.6H79.1v29.6h47.6
				c-2.8,8.5-7.6,16.1-14.2,22.2c-9.1,8.4-20.7,13-32.7,13h-4.2v21.4c-37.4-2.2-67.2-34.2-67.2-73.1c0-34.7,24-64.8,57-71.8
				l-1.8-8.2C26.8,9.4,0,43,0,81.6c0,45,35.8,81.7,79.8,81.7h4.2v-21.7c12.7-1,24.7-6.2,34.2-15.1c9.1-8.4,15.3-19.3,18.1-31.6
				l1.1-5.1h-50V77h63.5c0.1,1.6,0.1,3.1,0.1,4.7c0,34.2-23.6,64.3-56.2,71.6c-0.8,0.2-1.7,0.4-2.6,0.5v8.5c1.5-0.2,3-0.5,4.4-0.8
				c36.4-8.1,62.8-41.7,62.8-79.8c0-3.1-0.2-6.2-0.5-9.3L158.8,68.6L158.8,68.6z"/>
			
				<linearGradient id="SVGID_00000018220064921517075670000013238057794171904186_" gradientUnits="userSpaceOnUse" x1="460.5856" y1="179.9024" x2="63.5856" y2="82.9024">
				<stop  offset="0" style="stop-color:#6921A3"/>
				<stop  offset="1" style="stop-color:#00CFC9"/>
			</linearGradient>
			<path style="fill:url(#SVGID_00000018220064921517075670000013238057794171904186_);" d="M41.2,78.8c1.4-21.3,18.4-38,38.7-38
				c9.7,0,19,3.8,26.2,10.8l5.9-6c-8.8-8.5-20.2-13.2-32.1-13.2c-23.4,0-43.3,18.1-46.7,41.9H22.6l-0.4,3.8
				c0,0.5-4.4,50.1,45.8,61.8v-8.7c-34-8.9-37.4-38-37.5-48.5H41C41,82.7,41.2,78.8,41.2,78.8z"/>
			
				<linearGradient id="SVGID_00000147194617841911229420000013171495750521949618_" gradientUnits="userSpaceOnUse" x1="471.7932" y1="134.0317" x2="74.7933" y2="37.0317">
				<stop  offset="0" style="stop-color:#6921A3"/>
				<stop  offset="1" style="stop-color:#00CFC9"/>
			</linearGradient>
			<path style="fill:url(#SVGID_00000147194617841911229420000013171495750521949618_);" d="M22,61.2l-0.8,3.3h8.7l0.3-1.5
				c5-22,25.3-37.3,49.6-37.3h4.2V8.5c21.5,1.3,41.5,12.7,54.1,30.9l7-4.7C130.2,13,105.8,0,79.9,0h-4.2v17.4
				C49.3,19.1,27.5,36.6,22,61.2z"/>
		</g>
	</g>
</g>
</svg>
