<svg xmlns="http://www.w3.org/2000/svg" xmlns:xlink="http://www.w3.org/1999/xlink" viewBox="0 0 212.34 81.19" xmlns:v="https://vecta.io/nano"><path d="M117.27 34.62q-3 2.79-8.11 2.79c-.68 0-1.31 0-1.91-.07v9.46H102V19.38q3.76-.18 7.67-.18c3.35 0 5.92.74 7.72 2.2a7.64 7.64 0 0 1 2.68 6.25 9.22 9.22 0 0 1-2.8 6.97zm-8-11h-2v9.2a10.37 10.37 0 0 0 2.24.22q5.08 0 5.08-4.84-.02-4.63-5.29-4.63zm36.53 12.53q0 11.1-11.37 11.11-10.61 0-10.61-10V19.38h5.28V37a6.52 6.52 0 0 0 1.15 4.24q1.35 1.65 4.54 1.65c2.05 0 3.52-.47 4.4-1.43s1.37-2.62 1.37-4.94V19.38h5.24zm5.68 10.65V19.38h5.27V46.8zm32.93-10.65q0 11.1-11.37 11.11-10.62 0-10.61-10V19.38h5.27V37a6.58 6.58 0 0 0 1.15 4.24q1.35 1.65 4.55 1.65c2 0 3.52-.47 4.4-1.43s1.37-2.62 1.37-4.94V19.38h5.24zm21.27 10.65l-5.9-10.08-5.89 10.08h-6.25l8.73-14-8.19-13.39h6.13l5.55 9.5 5.54-9.5h6l-8.07 13.35 9 14.07zM111 68.17h-1.45l-1.64-5.79a15 15 0 0 1-.32-1.48h0a13.77 13.77 0 0 1-.31 1.48l-1.6 5.79h-1.4l-2.28-8.6h1.25l1.46 5.61c.13.5.24 1 .34 1.66h0a12.54 12.54 0 0 1 .34-1.6l1.61-5.67h1.33l1.67 5.71a15.2 15.2 0 0 1 .35 1.53h0l.29-1.4 1.5-5.84h1.15z"/><path d="M118.66 65h-4.15c0 1.54.63 2.32 2 2.32a4.51 4.51 0 0 0 1.81-.37l.16.9a5.73 5.73 0 0 1-2.19.4c-2 0-3-1.09-3-3.25a3.62 3.62 0 0 1 .75-2.37 2.61 2.61 0 0 1 2.11-1 2.39 2.39 0 0 1 1.91.77 2.7 2.7 0 0 1 .59 1.84 3.26 3.26 0 0 1 .01.76zm-1.14-.82a1.68 1.68 0 0 0-.36-1.2 1.32 1.32 0 0 0-1.06-.43c-.89 0-1.41.54-1.56 1.63zm7.41 3.13a3.11 3.11 0 0 1-2.42 1 8.59 8.59 0 0 1-2.18-.25v-9.19h1.15v3.07a5.5 5.5 0 0 1-.11 1.18h0a2.28 2.28 0 0 1 3.82-.65 3.54 3.54 0 0 1 .61 2.22 3.66 3.66 0 0 1-.87 2.62zm-1.71-4.65a1.5 1.5 0 0 0-1.31.81 3.08 3.08 0 0 0-.43 1.63v2.1a3.59 3.59 0 0 0 1.13.16q2 0 2-2.55c.01-1.43-.46-2.15-1.39-2.15zm4.27 7.57h-1.09l4.46-11.71H132zm10.87-2.06l-.72-2H134l-.71 2h-1.2l3.13-8.6h1.32l3.15 8.6zM136.19 62l-.37-1.17-.35 1.15-1.17 3.25h3.07z"/><use xlink:href="#B"/><use xlink:href="#B" x="7.03"/><path d="M157.61 67.71a3 3 0 0 1-2 .58 5.13 5.13 0 0 1-1.41-.17l.1-1a3.73 3.73 0 0 0 1.41.26 1.73 1.73 0 0 0 1-.26.81.81 0 0 0 .38-.71.78.78 0 0 0-.46-.72 10.54 10.54 0 0 0-1-.37 2.56 2.56 0 0 1-1-.51 1.47 1.47 0 0 1-.46-1.17 1.65 1.65 0 0 1 .63-1.35 2.91 2.91 0 0 1 1.9-.55 5.9 5.9 0 0 1 1.22.13l-.09.94a4.44 4.44 0 0 0-1.24-.19c-.83 0-1.24.3-1.24.9a.82.82 0 0 0 .47.73 8.21 8.21 0 0 0 1 .37c1 .33 1.48.88 1.48 1.66a1.75 1.75 0 0 1-.69 1.43zm8.78-.16a3.51 3.51 0 0 1-2.32.74 7 7 0 0 1-1.89-.24l.15-1.13a4.67 4.67 0 0 0 1.81.35 2.22 2.22 0 0 0 1.3-.34 1.28 1.28 0 0 0 .56-1.13 1.21 1.21 0 0 0-.61-1 10.27 10.27 0 0 0-1.34-.61 4.57 4.57 0 0 1-1.33-.76 2 2 0 0 1-.61-1.5 2.17 2.17 0 0 1 .78-1.75 3.31 3.31 0 0 1 2.22-.69 6.71 6.71 0 0 1 1.56.17l-.14 1a5.12 5.12 0 0 0-1.48-.23c-1.15 0-1.73.45-1.73 1.34a1.18 1.18 0 0 0 .61 1 12.35 12.35 0 0 0 1.36.62 4.7 4.7 0 0 1 1.36.77 2 2 0 0 1 .61 1.49 2.37 2.37 0 0 1-.87 1.9zm7.21-.24a2.87 2.87 0 0 1-2.25 1q-2.83 0-2.84-3.23a3.43 3.43 0 0 1 .83-2.37 2.88 2.88 0 0 1 2.26-1 2.79 2.79 0 0 1 2 .73 3.35 3.35 0 0 1 .81 2.45 3.52 3.52 0 0 1-.81 2.42zm-2.11-4.63a1.61 1.61 0 0 0-1.24.54 2.5 2.5 0 0 0-.56 1.73q0 2.37 1.8 2.37a1.51 1.51 0 0 0 1.23-.57 2.67 2.67 0 0 0 .53-1.79c0-1.52-.58-2.28-1.76-2.28zm4.51 5.49v-9.3h1.15v9.3zm7.24 0a6.75 6.75 0 0 1 .11-1.33h0a2.24 2.24 0 0 1-2.23 1.45c-1.27 0-1.9-.68-1.9-2v-4.45h1.13v4.08c0 1 .36 1.43 1.08 1.43a1.55 1.55 0 0 0 1.3-.71 2.94 2.94 0 0 0 .5-1.77v-3h1.15v6.33zm6.4-.03a5.72 5.72 0 0 1-1.28.13 1.68 1.68 0 0 1-1.33-.43 2.29 2.29 0 0 1-.36-1.47v-3.64h-1.31v-.89h1.31v-2.06l1.14-.32v2.38h1.78v.89h-1.78V66a2.06 2.06 0 0 0 .19 1 .81.81 0 0 0 .72.28 2.86 2.86 0 0 0 .8-.11zm2.64-7.78a.8.8 0 0 1-1.08 0 .7.7 0 0 1-.23-.52.73.73 0 0 1 .23-.54.77.77 0 0 1 1.08 0 .73.73 0 0 1 .23.54.71.71 0 0 1-.23.52zm-1.11 7.81v-6.33h1.14v6.33zm7.83-.86a2.85 2.85 0 0 1-2.24 1q-2.85 0-2.85-3.23a3.48 3.48 0 0 1 .83-2.37 2.9 2.9 0 0 1 2.26-1 2.79 2.79 0 0 1 2 .73 3.35 3.35 0 0 1 .81 2.45 3.52 3.52 0 0 1-.81 2.42zm-2.11-4.63a1.62 1.62 0 0 0-1.24.54 2.5 2.5 0 0 0-.56 1.73q0 2.37 1.8 2.37a1.54 1.54 0 0 0 1.24-.57 2.73 2.73 0 0 0 .53-1.79q-.01-2.28-1.78-2.28zm8.46 5.49V64.1q0-1.44-1.08-1.44a1.54 1.54 0 0 0-1.29.71 3 3 0 0 0-.51 1.77v3h-1.15v-6.3h1.11a6.86 6.86 0 0 1-.1 1.33h0a2.23 2.23 0 0 1 2.23-1.45c1.27 0 1.91.68 1.91 2v4.42zm6.22-.46a3.07 3.07 0 0 1-2 .58 5.18 5.18 0 0 1-1.41-.17l.11-1a3.64 3.64 0 0 0 1.4.26 1.79 1.79 0 0 0 1-.26.83.83 0 0 0 .38-.71.8.8 0 0 0-.46-.72c-.12-.06-.45-.18-1-.37a2.54 2.54 0 0 1-1-.51 1.5 1.5 0 0 1-.46-1.17 1.65 1.65 0 0 1 .63-1.35 2.93 2.93 0 0 1 1.9-.55 5.83 5.83 0 0 1 1.22.13l-.09.94a4.39 4.39 0 0 0-1.24-.19c-.82 0-1.24.3-1.24.9a.82.82 0 0 0 .47.73 9.51 9.51 0 0 0 1 .37c1 .33 1.48.88 1.48 1.66a1.75 1.75 0 0 1-.69 1.43zM24.86 0v77.36a42.52 42.52 0 0 1 0-77.36zm24.8 41.83a35.08 35.08 0 0 1-7.39-.72V10.74l6.74-.13q17.4 0 17.41 15.25 0 15.97-16.76 15.97z"/><path d="M85,38.68A42.51,42.51,0,0,1,42.51,81.19h-.24V56q2.94.26,6.28.26,17,0,26.77-9.23a29.11,29.11,0,0,0,8.77-17.3A42.82,42.82,0,0,1,85,38.68Z"/><defs ><path id="B" d="M145.11 67.33a3.13 3.13 0 0 1-2.4.92 6.58 6.58 0 0 1-1.07-.08v3.16h-1.15v-9.49h1.11a6.18 6.18 0 0 1-.1 1.28h0a2.11 2.11 0 0 1 2.13-1.42 2 2 0 0 1 1.71.77 3.47 3.47 0 0 1 .61 2.22 3.72 3.72 0 0 1-.84 2.64zm-1.73-4.67a1.48 1.48 0 0 0-1.3.81 3.12 3.12 0 0 0-.44 1.64v2.09a3.59 3.59 0 0 0 1.13.16q2 0 2-2.55c.01-1.43-.46-2.15-1.39-2.15z"/></defs></svg>